<?xml version="1.0" encoding="UTF-8"?>
<!DOCTYPE svg PUBLIC "-//W3C//DTD SVG 1.1//EN" "http://www.w3.org/Graphics/SVG/1.1/DTD/svg11.dtd">
<!-- Creator: CorelDRAW -->
<svg xmlns="http://www.w3.org/2000/svg" xml:space="preserve" width="161.067mm" height="42.7386mm" version="1.1" style="shape-rendering:geometricPrecision; text-rendering:geometricPrecision; image-rendering:optimizeQuality; fill-rule:evenodd; clip-rule:evenodd"
viewBox="0 0 16091.91 4269.93"
 xmlns:xlink="http://www.w3.org/1999/xlink"
 xmlns:xodm="http://www.corel.com/coreldraw/odm/2003">
 <defs>
  <style type="text/css">
   <![CDATA[
    .fil0 {fill:#FEFEFE;fill-rule:nonzero}
   ]]>
  </style>
 </defs>
 <g id="Слой_x0020_1">
  <metadata id="CorelCorpID_0Corel-Layer"/>
  <g id="_2254583785792">
   <g>
    <path class="fil0" d="M4215.66 2539.13l-42.11 -7.29c-3.63,-0.05 -6.97,1.77 -7.64,5.45 -6.31,36.53 -14.12,73.34 -23.23,109.07 -0.43,1.69 -0.12,3.52 0.73,4.99 0.97,1.56 2.44,2.66 4.07,3.03l41.43 10.38c0.55,0.23 0.99,0.29 1.57,0.29 2.96,0 5.68,-1.98 6.33,-5.08 9.58,-37.44 17.66,-75.52 24.29,-113.2 0.3,-1.69 -0.17,-3.52 -1.16,-4.92 -1.04,-1.48 -2.61,-2.43 -4.28,-2.73z"/>
    <path class="fil0" d="M4173.52 2404.23l-0.17 0c-3.61,0 -6.54,2.88 -6.77,6.42 -0.79,20.72 -1.69,38.97 -3.17,55.74 0,1.67 0.44,3.46 1.71,4.86 1.09,1.25 2.74,2.13 4.51,2.28l42.52 3.23 0.54 0c1.56,0 3.13,-0.57 4.29,-1.7 1.48,-1.1 2.21,-2.7 2.37,-4.54 1.39,-19.27 2.49,-38.54 3.22,-57.75 0.08,-3.75 -2.79,-6.75 -6.39,-6.91l-42.64 -1.63z"/>
    <path class="fil0" d="M4172.98 2305.61l0.3 0 42.66 -1.75c1.69,-0.1 3.4,-0.91 4.63,-2.16 1.09,-1.33 1.87,-3.01 1.69,-4.78 -4.02,-95.08 -17.05,-191.45 -38.89,-286.35 -0.8,-3.58 -4.5,-5.48 -7.95,-4.99l-41.54 9.5c-1.78,0.42 -3.23,1.46 -4.21,2.92 -0.97,1.56 -1.24,3.31 -0.85,5.03 21.1,91.5 33.71,184.39 37.56,276.18 0.14,3.51 3.08,6.39 6.61,6.39z"/>
    <path class="fil0" d="M4169.31 1954.33c-9.72,-36.63 -20.97,-73.77 -33.4,-110.56 -1.26,-3.44 -4.55,-5.66 -8.5,-4.19l-40.34 13.67c-1.7,0.6 -3.07,1.85 -3.83,3.37 -0.81,1.59 -0.85,3.43 -0.37,5.11 12.17,35.84 23.19,71.79 32.52,107.01 0.48,1.62 1.56,3.1 3.01,3.97 1.05,0.6 2.23,0.98 3.41,0.98 0.58,0 1.16,-0.08 1.77,-0.29l41.11 -10.98c3.6,-0.94 5.66,-4.57 4.63,-8.08z"/>
    <path class="fil0" d="M3978.06 1608.41c1.06,0 2.07,-0.21 3.11,-0.73l37.82 -19.7c1.55,-0.82 2.63,-2.29 3.22,-3.9 0.45,-1.78 0.29,-3.54 -0.42,-5.18 -9.07,-16.97 -18.25,-33.96 -27.67,-50.74 -0.85,-1.52 -2.2,-2.63 -3.96,-3.17 -1.77,-0.5 -3.52,-0.29 -5.11,0.61l-37.12 20.95c-1.48,0.81 -2.74,2.3 -3.17,3.99 -0.44,1.71 -0.22,3.54 0.66,5.09 9.21,16.25 18.04,32.64 26.78,49.26 1.17,2.27 3.44,3.52 5.86,3.52z"/>
    <path class="fil0" d="M3754.2 1196.9l-32.52 27.52c-1.34,1.17 -2.2,2.71 -2.36,4.55 -0.14,1.69 0.42,3.46 1.57,4.86 60.6,71.34 116.64,147.24 166.75,225.43 1.29,2 3.44,3.11 5.55,3.11 1.18,0 2.5,-0.31 3.53,-1.05l36.04 -23.02c1.58,-0.88 2.59,-2.5 2.97,-4.19 0.29,-1.63 0,-3.46 -0.88,-4.94 -51.52,-80.26 -109.07,-158.21 -171.24,-231.54 -2.48,-2.8 -6.62,-3.01 -9.4,-0.74z"/>
    <path class="fil0" d="M3607.08 1100.41c-2.62,2.66 -2.62,6.77 0,9.43 26.02,26.26 51.92,53.75 77,81.69 1.28,1.41 2.89,1.71 4.93,2.22 1.64,0 3.25,-0.6 4.44,-1.7l31.77 -28.46c2.71,-2.44 2.92,-6.68 0.43,-9.36 -25.29,-28.36 -51.93,-56.62 -79.06,-83.91 -1.27,-1.25 -2.88,-1.97 -4.62,-1.97 -1.8,0 -3.52,0.72 -4.74,1.97l-30.15 30.09z"/>
    <path class="fil0" d="M3400.42 926.25c0.28,0 0.58,0 0.93,-0.08 1.77,-0.21 3.32,-1.1 4.36,-2.59l25.76 -33.98c2.19,-2.92 1.58,-7.12 -1.31,-9.25 -15.34,-11.71 -30.86,-23.1 -46.38,-34.14 -2.94,-2.19 -7.06,-1.59 -9.23,1.5l-24.87 34.54c-2.22,3.05 -1.49,7.2 1.45,9.27 15.15,10.9 30.29,22.08 45.32,33.4 1.16,0.79 2.49,1.33 3.98,1.33z"/>
    <path class="fil0" d="M3009.4 703.97c81.51,30.89 165.12,73.12 248.75,125.32 1.18,0.73 2.37,1.03 3.54,1.03 0.61,0 1.05,-0.07 1.48,-0.13 1.75,-0.45 3.23,-1.5 4.13,-2.95l22.63 -36.19c1.94,-3.09 1.04,-7.22 -2.04,-9.13 -86.5,-54.06 -173.45,-97.81 -258.52,-130.26 -3.32,-1.1 -7.3,0.45 -8.63,3.9l-15.14 39.86c-0.69,1.63 -0.58,3.49 0.14,5.02 0.69,1.69 2.07,2.93 3.67,3.53z"/>
    <path class="fil0" d="M2978.74 640.71c1.1,-3.52 -0.81,-7.27 -4.19,-8.4 -38.1,-12.48 -76.06,-22.56 -112.99,-29.97 -3.54,-0.73 -7.07,1.56 -7.8,5.15l-8.52 41.7c-0.41,1.69 0,3.44 0.89,4.95 1.01,1.44 2.53,2.48 4.26,2.83 35.15,7.32 71.21,16.79 106.79,28.54 0.75,0.23 1.41,0.4 2.08,0.4 1.03,0 2.05,-0.31 3.07,-0.82 1.51,-0.83 2.73,-2.14 3.25,-3.84l13.17 -40.53z"/>
    <path class="fil0" d="M3914.39 3208.3c-3.08,-1.92 -7.14,-0.66 -9.05,2.51 -18.54,32.19 -38.37,63.89 -59.2,94.44 -1.06,1.46 -1.33,3.23 -1.06,4.91 0.31,1.79 1.33,3.33 2.81,4.29l35.3 24.04c1.12,0.81 2.45,1.18 3.67,1.18 0.43,0 0.91,-0.08 1.27,-0.14 1.7,-0.23 3.31,-1.35 4.34,-2.81 21.85,-32.21 42.52,-65.24 61.35,-98.11 1.84,-3.23 0.73,-7.28 -2.52,-9.12l-36.91 -21.18z"/>
    <path class="fil0" d="M3957.93 3088.48c-3.38,-1.4 -7.27,0.13 -8.69,3.61 -6.97,17.12 -14.25,34.21 -21.89,51.21 -1.5,3.38 0,7.33 3.24,8.81l38.82 17.57c0.96,0.42 1.84,0.58 2.8,0.58 2.5,0 4.92,-1.47 6.01,-3.89 8.09,-17.89 15.88,-35.9 22.82,-53.33 0.73,-1.69 0.73,-3.53 0,-5.15 -0.67,-1.61 -1.95,-2.95 -3.63,-3.54l-39.48 -15.89z"/>
    <path class="fil0" d="M4096.05 2714.33l-42.37 -5.25c-0.2,-0.06 -0.43,-0.06 -0.75,-0.06 -3.21,0 -6.13,2.49 -6.6,5.88 -11.45,93.41 -31.47,185 -59.22,272.37 -0.49,1.6 -0.35,3.44 0.44,5 0.82,1.54 2.16,2.79 3.9,3.3l40.63 12.87c0.73,0.23 1.31,0.31 2.04,0.31 2.8,0 5.45,-1.76 6.34,-4.64 28.65,-90.03 49.32,-185.04 61.3,-282.44 0.31,-1.77 -0.21,-3.46 -1.29,-4.86 -1.03,-1.4 -2.67,-2.35 -4.43,-2.49z"/>
    <path class="fil0" d="M4107.82 2542.06l-42.66 -0.88 -0.13 0c-3.69,0 -6.62,2.95 -6.68,6.48 -0.84,36.93 -2.91,74.42 -6.1,111.65 -0.17,1.84 0.39,3.54 1.45,4.86 1.19,1.39 2.78,2.2 4.55,2.43l42.52 3.7 0.6 0c1.61,0 3.17,-0.6 4.26,-1.59 1.4,-1.08 2.21,-2.71 2.44,-4.49 3.37,-39.32 5.43,-78.16 6.25,-115.3 0,-1.85 -0.59,-3.54 -1.92,-4.79 -1.19,-1.34 -2.88,-1.98 -4.57,-2.07z"/>
    <path class="fil0" d="M4044.62 2273.02c1.27,0.83 2.61,1.34 4.07,1.34 0.29,0 0.61,0 0.9,-0.06l42.28 -5.83c1.84,-0.21 3.4,-1.11 4.42,-2.58 1.11,-1.4 1.54,-3.1 1.31,-4.92 -2.71,-19.05 -5.49,-37.97 -8.59,-56.87 -0.61,-3.68 -3.82,-5.23 -7.59,-5.59l-42.14 6.85c-1.69,0.21 -3.23,1.33 -4.26,2.71 -1.02,1.5 -1.47,3.16 -1.25,4.86 3,18.54 5.85,37.08 8.4,55.69 0.2,1.69 1.11,3.31 2.46,4.41z"/>
    <path class="fil0" d="M4015.45 2107.1c1.03,0.75 2.36,1.01 3.53,1.01 0.52,0 0.96,-0.05 1.46,-0.11l41.64 -9.38c3.59,-0.73 5.89,-4.34 5.07,-7.93 -20.81,-92.81 -48.31,-185.7 -81.65,-276.02 -0.63,-1.69 -1.82,-2.94 -3.43,-3.76 -1.63,-0.58 -3.4,-0.67 -5.17,-0.14l-39.91 14.78c-3.34,1.26 -5.24,5.08 -3.95,8.53 32.69,88.41 59.38,178.88 79.47,268.89 0.29,1.69 1.48,3.17 2.95,4.13z"/>
    <path class="fil0" d="M3918.93 1785.82c0.83,0 1.7,-0.14 2.52,-0.52l39.56 -15.73c1.6,-0.6 2.94,-1.9 3.66,-3.52 0.73,-1.56 0.73,-3.4 0,-5.03 -13.81,-35.21 -29.24,-70.9 -45.52,-105.91 -0.8,-1.6 -2.12,-2.8 -3.84,-3.46 -1.53,-0.5 -3.44,-0.5 -5,0.25l-38.59 17.93c-3.37,1.54 -4.87,5.58 -3.32,8.81 15.53,33.32 30.37,67.96 44.43,102.9 1.03,2.73 3.59,4.27 6.09,4.27z"/>
    <path class="fil0" d="M3739.45 1435.96c1.21,0 2.53,-0.38 3.63,-1.04l35.81 -23.11c3.04,-2.06 3.85,-6.14 2.01,-9.18 -10.54,-16.31 -21.11,-32.43 -32.01,-48.19 -2.21,-3.03 -6.32,-3.75 -9.17,-1.59l-35.24 23.96c-1.48,0.96 -2.5,2.57 -2.75,4.26 -0.35,1.79 0,3.54 1.06,4.96 10.48,15.36 20.82,30.95 31.1,46.83 1.25,1.92 3.38,3.11 5.56,3.11z"/>
    <path class="fil0" d="M3636.64 1295.77c1.32,1.68 3.26,2.58 5.33,2.58 1.36,0 2.79,-0.44 3.96,-1.4l33.68 -26.2c1.4,-1.19 2.36,-2.73 2.51,-4.5 0.27,-1.78 -0.3,-3.44 -1.34,-4.84 -62.58,-80.16 -129.29,-151.08 -198.14,-210.82 -1.34,-1.1 -2.95,-1.39 -4.87,-1.6 -1.75,0.15 -3.37,0.96 -4.56,2.34l-27.81 32.14c-2.41,2.8 -2.04,6.92 0.69,9.34 65.96,57.31 130.11,125.47 190.55,202.94z"/>
    <path class="fil0" d="M3332.89 948.83l-22.37 36.25c-0.88,1.48 -1.17,3.34 -0.82,5 0.46,1.77 1.49,3.26 3.03,4.05 29.7,18.33 60.17,39.58 90.55,63.33 1.24,0.95 2.56,1.46 4.06,1.46 2.04,0 3.96,-0.86 5.21,-2.56l26.25 -33.55c2.37,-2.85 1.86,-7.04 -1.1,-9.25 -31.68,-25.02 -64,-47.5 -95.68,-66.87 -3.17,-1.98 -7.36,-1 -9.11,2.15z"/>
    <path class="fil0" d="M3439.4 3755.22c-2.36,-2.75 -6.68,-3.11 -9.42,-0.73 -29.41,24.69 -58.98,47.82 -87.97,68.55 -1.32,0.98 -2.26,2.47 -2.63,4.33 -0.31,1.72 0.12,3.46 1.17,4.95l24.99 34.62c1.03,1.42 2.66,2.41 4.37,2.74 0.37,0 0.63,0.05 1.1,0.05 1.34,0 2.7,-0.43 3.79,-1.31 30.92,-22.27 61.52,-46.27 91.26,-71.12 1.32,-1.18 2.19,-2.82 2.31,-4.48 0.17,-1.83 -0.42,-3.63 -1.45,-5.02l-27.5 -32.57z"/>
    <path class="fil0" d="M3521.28 3657.6c-1.28,-1.16 -2.91,-1.75 -4.51,-1.75 -1.92,0.44 -3.7,0.79 -4.94,2.26 -11.84,13.18 -24.36,26.52 -38.25,40.59 -2.57,2.76 -2.5,6.85 0.06,9.5l30.63 29.72c1.23,1.32 2.93,1.91 4.62,1.91 1.71,0 3.47,-0.74 4.78,-1.99 13.27,-13.45 26.49,-27.81 39.66,-42.29 2.42,-2.74 2.25,-6.89 -0.37,-9.32l-31.68 -28.63z"/>
    <path class="fil0" d="M3741.02 3334.13c-1.7,-0.88 -3.48,-1.1 -5.08,-0.43 -1.67,0.51 -3.09,1.76 -3.81,3.3 -42.97,83.92 -92.95,163.07 -148.88,235.59 -2.21,2.95 -1.62,7.05 1.18,9.32l33.76 26.05c1.28,0.83 2.57,1.39 4.06,1.39 0.26,0 0.58,0 0.87,-0.14 1.77,-0.12 3.29,-1.09 4.39,-2.5 57.86,-74.96 109.77,-157.11 154.36,-244.2 1.77,-3.31 0.41,-7.28 -2.87,-8.89l-37.98 -19.49z"/>
    <path class="fil0" d="M3848.92 3195.58l-39.7 -15.46c-1.69,-0.58 -3.54,-0.58 -5.11,0.15 -1.58,0.72 -2.85,1.97 -3.52,3.68 -13.46,34.72 -28.15,69.37 -43.9,102.68 -1.63,3.4 -0.14,7.28 3.15,8.85l38.62 18.12c0.92,0.46 1.92,0.77 2.8,0.77 0.83,0 1.64,-0.25 2.31,-0.46 1.59,-0.59 2.98,-1.83 3.73,-3.37 16.17,-34.53 31.46,-70.25 45.44,-106.3 1.34,-3.45 -0.42,-7.26 -3.82,-8.66z"/>
    <path class="fil0" d="M3927.64 2933.13c0.43,0.09 0.95,0.15 1.4,0.15 1.24,0 2.48,-0.36 3.6,-1.03 1.46,-0.96 2.48,-2.49 2.85,-4.27 4.07,-18.73 7.88,-37.59 11.43,-56.55 0.35,-1.7 0,-3.53 -1.02,-4.93 -0.9,-1.48 -2.53,-2.51 -4.3,-2.74l-41.77 -7.85c-3.55,-0.66 -7.08,1.61 -7.73,5.18 -3.52,18.43 -7.26,36.75 -11.25,55.06 -0.73,3.6 1.45,7.12 5.16,7.86l41.64 9.11z"/>
    <path class="fil0" d="M3958.52 2763.47c1.47,0 2.88,-0.53 4.11,-1.4 1.33,-1.1 2.29,-2.68 2.52,-4.43 11.75,-90.54 17.79,-183.57 17.79,-276.56l0 -10.65c0,-3.58 -3.08,-6.7 -6.71,-6.7l-42.58 0c-3.61,0 -6.59,3.13 -6.59,6.7l0 10.65c-0.09,90.62 -5.95,181.22 -17.37,269.28 -0.59,3.59 2.06,6.98 5.65,7.42l42.27 5.58c0.32,0.09 0.61,0.09 0.92,0.09z"/>
    <path class="fil0" d="M3920.99 2297.52c-1.17,1.4 -1.61,3.17 -1.61,4.85 3.19,36.93 5.3,74.65 6.45,112.1 0.23,3.69 3.2,6.47 6.69,6.47l0.22 0 42.69 -1.25c1.75,-0.07 3.35,-0.88 4.61,-2.13 1.17,-1.25 1.85,-3.02 1.85,-4.71 -1.24,-37.45 -3.39,-76.13 -6.62,-115.04 -0.14,-1.84 -1.01,-3.38 -2.35,-4.57 -1.25,-1.02 -2.91,-1.25 -4.86,-1.62l-42.5 3.63c-1.77,0.12 -3.38,1.02 -4.58,2.27z"/>
    <path class="fil0" d="M3885.1 2030.51l41.5 -9.47c3.54,-0.73 5.8,-4.42 5,-7.96 -4.27,-18.82 -8.69,-37.41 -13.55,-55.95 -0.96,-3.55 -4.71,-6.04 -8.06,-4.72l-41.18 10.53c-3.61,0.87 -5.75,4.48 -4.8,8.01 4.49,18 8.92,36.2 13.17,54.5 0.67,3.16 3.41,5.21 6.45,5.21 0.53,0 0.9,-0.05 1.47,-0.15z"/>
    <path class="fil0" d="M3886 1846.28c-31.64,-97.23 -69.9,-186.6 -114.02,-265.66 -1.84,-3.38 -6.25,-4.65 -8.96,-2.57l-37.4 20.72c-1.44,0.89 -2.63,2.23 -3.15,3.99 -0.44,1.67 -0.2,3.52 0.66,4.99 42.23,75.82 79.15,161.97 109.61,255.9 0.56,1.68 1.75,3 3.29,3.84 0.97,0.5 1.99,0.79 3.03,0.79 0.75,0 1.39,-0.14 2.09,-0.38l40.58 -13.24c3.47,-1.09 5.29,-4.86 4.27,-8.38z"/>
    <path class="fil0" d="M3666.07 1433.52l-33.54 26.55c-1.34,1.11 -2.22,2.67 -2.34,4.44 -0.31,1.74 0.21,3.52 1.32,4.91 21.77,27.15 42.95,57.6 63.41,90.33 0.85,1.6 2.42,2.65 4.13,3 0.41,0.16 0.99,0.25 1.46,0.25 1.23,0 2.5,-0.38 3.52,-1.04l36.34 -22.59c3.09,-1.92 3.98,-6.01 2.06,-9.18 -21.36,-34.36 -43.86,-66.51 -67.09,-95.63 -2.18,-2.87 -6.47,-3.31 -9.26,-1.02z"/>
    <path class="fil0" d="M2797.44 4102.95c-34.88,12.73 -70.55,24.35 -106.06,34.27 -1.63,0.53 -3.11,1.63 -3.96,3.19 -0.9,1.46 -1.05,3.32 -0.59,5.08l11.6 40.97c0.88,2.94 3.55,4.86 6.38,4.86 0.68,0 1.27,-0.09 1.85,-0.32 37,-10.35 74,-22.37 110.05,-35.58 3.39,-1.34 5.17,-5.17 3.86,-8.46l-14.6 -40.01c-1.24,-3.56 -5.31,-5.07 -8.53,-3.99z"/>
    <path class="fil0" d="M2916.15 4043.24c-1.77,-3.29 -5.65,-4.48 -8.95,-2.82 -16.41,8.69 -32.98,17.01 -49.8,25.11 -3.32,1.52 -4.8,5.52 -3.1,8.82l18.44 38.36c1.03,2.46 3.41,3.83 5.91,3.83 1.02,0 1.9,-0.26 2.92,-0.69 17.09,-8.11 34,-16.62 51.79,-26.07 1.56,-0.8 2.67,-2.22 3.15,-3.79 0.54,-1.8 0.37,-3.57 -0.36,-5.18l-20 -37.59z"/>
    <path class="fil0" d="M3228.58 3812.2c-2.18,0.37 -3.46,0.58 -4.7,1.88 -69.51,64.5 -143.74,121.85 -220.5,170.38 -1.48,0.97 -2.51,2.42 -2.94,4.22 -0.29,1.66 -0.06,3.55 0.88,5l22.78 35.96c1.34,1.99 3.53,3.09 5.6,3.09 1.26,0 2.49,-0.27 3.59,-1.03 80.13,-50.76 156.99,-110.16 228.56,-176.75 2.63,-2.49 2.78,-6.68 0.27,-9.35l-28.98 -31.16c-1.16,-1.33 -2.79,-2.14 -4.57,-2.23z"/>
    <path class="fil0" d="M3382.18 3721.08l-32.09 -28.1c-2.85,-2.42 -7.04,-2.2 -9.41,0.62 -24.57,28.07 -50.31,55.54 -76.5,81.72 -2.55,2.54 -2.55,6.74 0,9.33l30.16 30.12c1.25,1.35 2.93,2.02 4.65,2.02 1.69,0 3.36,-0.67 4.63,-2.02 27.37,-27.14 53.91,-55.49 79.14,-84.27 2.49,-2.79 2.05,-6.99 -0.57,-9.42z"/>
    <path class="fil0" d="M3582.81 3440.94l-36.58 -21.79c-1.45,-0.88 -3.36,-1.33 -5.06,-0.73 -1.67,0.45 -3.16,1.47 -3.98,3.11 -9.61,16.02 -19.32,32.04 -29.41,47.86 -1.03,1.5 -1.25,3.32 -0.9,5.02 0.31,1.76 1.5,3.24 2.97,4.22l35.93 22.71c1.15,0.66 2.3,1.02 3.59,1.02 2.1,0 4.32,-1.09 5.61,-3.11 10.32,-16.21 20.46,-32.62 30.18,-49.18 1.91,-3.25 0.89,-7.2 -2.36,-9.11z"/>
    <path class="fil0" d="M3632.26 3352.03c0.83,0.5 1.89,0.79 3.02,0.79 0.64,0 1.37,-0.06 1.96,-0.37 1.69,-0.52 3.09,-1.71 3.84,-3.23 43.69,-84.08 82.37,-172.83 115.03,-263.92 0.67,-1.6 0.59,-3.44 -0.22,-5.09 -0.65,-1.51 -2.07,-2.79 -3.76,-3.37l-40.17 -14.36c-3.55,-1 -7.26,0.6 -8.53,3.98 -31.68,88.58 -69.28,175.08 -111.85,257 -0.9,1.62 -0.97,3.4 -0.45,5.06 0.5,1.72 1.7,3.12 3.3,3.93l37.84 19.57z"/>
    <path class="fil0" d="M3768.58 3035.39c2.82,0 5.39,-1.85 6.34,-4.65 11.85,-35.96 22.93,-73.02 33.02,-110.25 0.96,-3.52 -1.09,-7.21 -4.61,-8.08l-41.21 -11.25c-1.61,-0.53 -3.54,-0.32 -5.01,0.58 -1.62,0.87 -2.75,2.35 -3.17,4.04 -10.07,36.87 -20.81,73.04 -32.29,107.54 -0.43,1.61 -0.43,3.46 0.38,5.07 0.87,1.54 2.28,2.8 3.89,3.34l40.62 13.29c0.64,0.23 1.32,0.38 2.03,0.38z"/>
    <path class="fil0" d="M3822.37 2569.36c-0.14,-0.08 -0.37,-0.08 -0.58,-0.08 -3.4,0 -6.31,2.58 -6.56,5.97 -1.83,18.52 -3.88,36.99 -6.31,55.67 -0.29,1.76 0.29,3.6 1.34,4.94 1.1,1.39 2.62,2.34 4.39,2.48l42.23 5.56c0.3,0.04 0.58,0.04 0.88,0.04 1.49,0 2.87,-0.52 4.13,-1.39 1.32,-1.11 2.27,-2.71 2.51,-4.42 2.33,-19.25 4.53,-38.39 6.47,-57.38 0.12,-1.75 -0.37,-3.52 -1.48,-4.92 -1.19,-1.26 -2.67,-2.16 -4.57,-2.36l-42.44 -4.13z"/>
    <path class="fil0" d="M3871.88 2471.91c3.54,0 6.47,-2.88 6.62,-6.39 0.75,-20.08 1.02,-39.87 1.02,-59.59 0,-80.6 -5.73,-157.76 -17.2,-229.19 -0.29,-1.76 -1.31,-3.29 -2.71,-4.33 -1.4,-1.1 -3.34,-1.34 -4.97,-1.24l-42.06 6.81c-3.61,0.68 -6.09,4.05 -5.49,7.65 10.94,68.65 16.54,142.71 16.54,220.23 0,18.96 -0.36,38.31 -1.02,57.65 0,1.83 0.55,3.46 1.74,4.8 1.19,1.25 2.88,2.04 4.57,2.12l42.67 1.48 0.29 0z"/>
    <path class="fil0" d="M3812.92 2002.35l-40.34 13.63c-3.56,1.16 -5.39,4.94 -4.29,8.36 11.2,33.26 20.77,69.14 28.69,106.67 0.61,3.06 3.41,5.28 6.46,5.28 0.46,0 0.9,-0.13 1.33,-0.21l41.79 -8.75c1.76,-0.31 3.24,-1.33 4.19,-2.81 0.97,-1.47 1.26,-3.3 0.97,-5.01 -8.53,-40.6 -18.84,-78.54 -30.4,-112.89 -1.23,-3.53 -5.06,-5.67 -8.4,-4.28z"/>
    <path class="fil0" d="M2208.43 4192.76c-18.38,2.5 -36.77,4.67 -55.38,6.53 -3.58,0.38 -6.23,3.57 -5.78,7.29l4.17 42.36c0.38,3.39 3.19,5.97 6.56,5.97 0.15,0 0.41,0 0.59,-0.08 18.24,-1.61 37.58,-3.99 57.52,-6.84 3.69,-0.54 6.18,-3.89 5.64,-7.49l-5.87 -42.15c-0.52,-3.52 -4.04,-6.78 -7.44,-5.59z"/>
    <path class="fil0" d="M2088.63 4215.94c-1.16,-1.35 -2.93,-2.01 -4.62,-2.01l-3.23 0c-35.32,0 -71.79,-1.31 -108.29,-4.02 -3.97,-0.67 -6.92,2.52 -7.19,6.09l-3.16 42.58c-0.09,1.78 0.49,3.55 1.7,4.79 1,1.41 2.69,2.23 4.54,2.35 38.67,2.8 76.65,4.21 112.53,4.21l3.16 0c3.79,0 6.69,-3.1 6.69,-6.71l-0.12 -42.64c0,-1.77 -0.66,-3.45 -2.01,-4.64z"/>
    <path class="fil0" d="M2583.53 4088.17c-86.78,36.81 -176.05,65.32 -265.36,84.96 -3.65,0.78 -5.87,4.36 -5.15,7.88l9.14 41.56c0.28,1.74 1.4,3.29 2.92,4.25 1.05,0.66 2.22,1.04 3.54,1.04 0.46,0 0.97,-0.09 1.41,-0.15 92.73,-20.36 185.34,-49.93 275.36,-87.95 1.6,-0.71 2.94,-2 3.53,-3.63 0.67,-1.69 0.67,-3.46 0,-5.17l-16.7 -39.24c-1.46,-3.24 -5.14,-4.93 -8.68,-3.56z"/>
    <path class="fil0" d="M2763.92 4054.96l-20.45 -37.31c-0.91,-1.55 -2.3,-2.74 -3.99,-3.25 -1.78,-0.6 -3.69,-0.36 -5.07,0.66 -32.52,17.87 -66.08,34.8 -99.69,50.45 -1.68,0.82 -2.91,2.22 -3.52,3.84 -0.59,1.61 -0.46,3.47 0.23,5l18.02 38.54c1.01,2.53 3.52,3.88 6.01,3.88 0.88,0 1.92,-0.12 2.74,-0.56 33.89,-15.74 68.6,-33.36 103.1,-52.29 3.17,-1.77 4.43,-5.83 2.61,-8.96z"/>
    <path class="fil0" d="M3047.64 3869.58c1.34,-1.18 2.23,-2.71 2.4,-4.54 0.12,-1.72 -0.39,-3.4 -1.48,-4.8l-27.22 -32.95c-1.05,-1.4 -2.65,-2.26 -4.41,-2.36 -1.7,-0.88 -3.54,0.39 -4.85,1.48 -14.43,11.86 -29.13,23.52 -43.86,34.92 -2.94,2.2 -3.54,6.4 -1.25,9.35l26.07 33.77c1.23,1.66 3.29,2.59 5.18,2.59 1.52,0 2.97,-0.44 4.13,-1.42 15.22,-11.75 30.31,-23.76 45.3,-36.05z"/>
    <path class="fil0" d="M3125.39 3793.56c1.4,1.36 3.18,2.18 4.94,2.18 1.63,0 3.24,-0.67 4.57,-1.76 69.86,-64.32 136.58,-134.58 198.29,-208.75 1.11,-1.39 1.63,-3.17 1.46,-4.85 -0.12,-1.77 -1.01,-3.38 -2.33,-4.49l-32.82 -27.22c-2.79,-2.4 -7.08,-1.96 -9.35,0.89 -60.16,72.31 -125.1,140.72 -193.2,203.14 -1.33,1.26 -2.07,2.86 -2.13,4.69 -0.07,1.74 0.6,3.5 1.7,4.77l28.88 31.4z"/>
    <path class="fil0" d="M3364.08 3543.01c0.3,0 0.59,0 0.79,-0.16 1.7,-0.14 3.4,-1.07 4.43,-2.47 24.33,-30.92 47.44,-62.08 68.83,-92.31 1.04,-1.4 1.4,-3.26 1.14,-4.95 -0.3,-1.77 -1.32,-3.29 -2.81,-4.33l-34.79 -24.59c-1.42,-0.94 -3.34,-1.25 -4.94,-1.08 -1.78,0.29 -3.31,1.24 -4.33,2.7 -20.78,29.5 -43.34,59.81 -67.03,90.05 -2.33,2.86 -1.83,7 1.1,9.25l33.57 26.42c1.1,0.96 2.56,1.46 4.04,1.46z"/>
    <path class="fil0" d="M3578.77 3204.76c0.97,0.52 1.99,0.81 3.01,0.81 0.74,0 1.41,-0.14 2.01,-0.38 1.69,-0.5 3.17,-1.75 3.89,-3.29 8.9,-17.28 17.51,-34.5 25.66,-51.8 0.81,-1.52 0.91,-3.39 0.31,-5.16 -0.5,-1.6 -1.83,-3 -3.4,-3.66l-38.46 -18.24c-3.39,-1.47 -7.19,-0.14 -8.82,3.1 -8.08,16.61 -16.31,33.37 -24.94,50.15 -1.67,3.3 -0.44,7.27 2.87,8.9l37.89 19.56z"/>
    <path class="fil0" d="M3611.81 3032.28l39.54 16.05c0.74,0.35 1.64,0.53 2.52,0.53 0.88,0 1.68,-0.18 2.58,-0.53 1.59,-0.73 2.94,-1.98 3.55,-3.63 38.13,-94.85 66.25,-188.1 83.31,-277.26 0.28,-1.77 0,-3.46 -1.04,-4.94 -1.03,-1.46 -2.57,-2.48 -4.26,-2.78l-41.94 -7.96c-2.62,-0.74 -6.99,1.64 -7.63,5.31 -16.46,85.47 -43.4,175.2 -80.33,266.62 -1.3,3.46 0.3,7.26 3.7,8.59z"/>
    <path class="fil0" d="M3746.38 2715.87c3.27,0 6.1,-2.43 6.54,-5.74 5.67,-39.42 9.04,-78.55 10.09,-116.35 0,-3.68 -2.95,-6.75 -6.55,-6.84l-42.59 -1.1c-1.82,-0.23 -3.53,0.58 -4.78,1.77 -1.23,1.24 -1.96,2.95 -2.13,4.72 -0.81,34.92 -3.98,71.85 -9.26,109.88 -0.59,3.69 1.89,7.06 5.59,7.58l42.12 6c0.38,0.09 0.59,0.09 0.96,0.09z"/>
    <path class="fil0" d="M1893.07 4128.63c-1.33,-1.12 -2.5,-1.83 -4.77,-1.7 -26.72,1.38 -53.79,2.08 -80.26,2.08 -64.29,-1.57 -132.69,-4.37 -198.29,-13 -3.71,-0.99 -6.97,1.95 -7.52,5.61l-5.58 42.31c-0.26,1.75 0.17,3.47 1.26,4.92 1.11,1.4 2.66,2.3 4.44,2.51 67.41,9.05 136.11,13.59 204.24,13.59l0.15 0c9.4,-0.26 18.66,-0.41 27.88,-0.47 18.88,-0.39 37.55,-0.6 56.53,-1.58 1.69,-0.12 3.4,-0.87 4.57,-2.19 1.21,-1.33 1.75,-3.09 1.75,-4.88l-2.18 -42.56c-0.09,-1.78 -0.91,-3.39 -2.22,-4.65z"/>
    <path class="fil0" d="M2067.98 4162.31c1.03,-1.41 1.47,-3.23 1.18,-4.94l-6.54 -42.13c-0.6,-3.59 -3.92,-6.03 -7.58,-5.5 -36.44,5.67 -73.7,10.14 -111.07,13.31 -1.76,0.15 -3.37,1 -4.46,2.42 -1.14,1.34 -1.72,3.02 -1.58,4.84l3.67 42.54c0.37,3.47 3.34,6.12 6.7,6.12l0.59 0c37.9,-3.34 76.58,-7.96 114.81,-13.98 1.68,-0.25 3.25,-1.19 4.28,-2.68z"/>
    <path class="fil0" d="M1499.78 4096.79c-16.4,-3.46 -33.58,-7.43 -54.19,-12.62 -3.75,-1.32 -7.2,1.14 -8.08,4.75l-10.61 41.18c-0.43,1.76 -0.13,3.63 0.73,5.07 0.91,1.57 2.37,2.59 4.14,3.03 18.83,4.86 37.59,9.29 56.34,13.3 0.43,0.09 0.96,0.16 1.47,0.16 1.2,0 2.5,-0.38 3.53,-1.05 1.56,-1 2.56,-2.48 2.93,-4.19l8.93 -41.75c0.35,-1.79 0.05,-3.62 -0.97,-5 -0.96,-1.47 -2.5,-2.59 -4.21,-2.88z"/>
    <path class="fil0" d="M2342.25 4098.9c0.61,0 1.4,-0.04 1.95,-0.32 18.34,-5.77 36.57,-11.95 54.81,-18.42 3.46,-1.25 5.31,-4.92 4.06,-8.35l-14.13 -40.18c-1.25,-3.46 -5.01,-5.01 -8.37,-4.12 -17.82,6.08 -35.46,12.08 -53.25,17.79 -1.8,0.53 -3.18,1.67 -3.98,3.29 -0.89,1.58 -0.89,3.41 -0.45,5.01l13.03 40.6c0.82,2.88 3.43,4.71 6.33,4.71z"/>
    <path class="fil0" d="M1375.29 4074.22c-34.36,-12.36 -69.15,-26.5 -103.29,-41.87 -1.6,-0.82 -3.53,-0.82 -5.07,-0.24 -1.71,0.61 -3.02,1.95 -3.77,3.48l-17.5 38.9c-0.73,1.71 -0.73,3.52 -0.14,5.14 0.67,1.63 1.92,3.04 3.54,3.73 34.86,15.73 70.98,30.34 107.25,43.45 0.73,0.21 1.46,0.38 2.27,0.38 0.96,0 1.9,-0.26 2.79,-0.59 1.64,-0.77 2.88,-2.16 3.47,-3.84l14.42 -40.09c0.58,-1.64 0.58,-3.47 -0.15,-5.07 -0.73,-1.65 -2.21,-2.79 -3.81,-3.38z"/>
    <path class="fil0" d="M2501.69 4038.97c0.81,0.35 1.68,0.48 2.51,0.48 0.88,0 1.69,-0.13 2.56,-0.48 87.66,-36.55 174.33,-79.73 257.64,-128.37 1.5,-0.85 2.61,-2.33 3.03,-3.94 0.42,-1.69 0.31,-3.57 -0.65,-5.08l-21.53 -36.87c-1.96,-3.25 -6.06,-4.27 -9.16,-2.34 -80.9,47.29 -165.33,89.37 -250.78,124.89 -1.63,0.64 -2.96,1.98 -3.7,3.61 -0.65,1.68 -0.65,3.46 0,5.15l16.48 39.44c0.64,1.51 1.92,2.85 3.6,3.51z"/>
    <path class="fil0" d="M2810.23 3881.86c1.25,0 2.51,-0.35 3.52,-1.1 32.3,-20 64.67,-41.33 96.38,-63.17 1.31,-0.95 2.34,-2.5 2.73,-4.27 0.18,-1.66 -0.08,-3.52 -1.1,-5.01l-24.43 -35.01c-2.23,-3.03 -6.18,-3.78 -9.29,-1.62 -30.49,21.17 -62.05,41.97 -93.82,61.71 -3.11,1.89 -4.07,6.02 -2.09,9.18l22.5 36.13c1.21,1.99 3.38,3.15 5.6,3.15z"/>
    <path class="fil0" d="M3137.37 3557.82c-13.23,12.96 -26.75,25.74 -40.6,38.59 -2.63,2.44 -2.85,6.7 -0.27,9.35l28.83 31.33c1.33,1.41 3,2.13 4.88,2.13 1.58,0 3.23,-0.58 4.45,-1.75 14.28,-13.1 28.17,-26.42 41.93,-39.79 1.25,-1.27 1.98,-2.94 1.98,-4.71 0,-1.78 -0.65,-3.48 -1.88,-4.73l-29.89 -30.37c-2.65,-2.57 -6.74,-2.79 -9.42,-0.06z"/>
    <path class="fil0" d="M3213.14 3481.68c0,1.77 0.91,3.46 2.23,4.57l31.75 28.46c1.2,1.08 2.8,1.77 4.41,1.77 1.78,0 3.63,-0.82 4.89,-2.3 68.24,-75.83 126.49,-153.87 173.13,-231.74 1.91,-3.18 0.8,-7.22 -2.35,-9.07l-36.66 -21.91c-3.08,-1.82 -7.18,-0.81 -9.04,2.38 -44.93,74.86 -101,149.95 -166.68,223.07 -1.23,1.31 -1.82,3.02 -1.68,4.77z"/>
    <path class="fil0" d="M3452.34 3235.37c0.66,0 1.3,-0.09 1.9,-0.38 1.7,-0.46 3.1,-1.62 4,-3.15 18.98,-35.92 35.58,-71.58 49.12,-105.91 1.33,-3.4 -0.31,-7.29 -3.75,-8.63l-39.65 -15.58c-3.4,-1.49 -7.14,0.35 -8.51,3.67 -13.28,33.1 -28.84,66.87 -46.65,100.18 -1.72,3.17 -0.46,7.21 2.79,8.96l37.65 20.1c0.89,0.5 2.07,0.74 3.11,0.74z"/>
    <path class="fil0" d="M1656.68 4000.6c-1.27,1.22 -2.06,2.85 -2.06,4.72l-1.75 42.54c-0.15,1.77 0.42,3.49 1.67,4.78 1.25,1.36 2.88,2.1 4.65,2.17 19.21,0.8 38.37,1.31 57.67,1.61l0.14 0c1.69,0 3.4,-0.76 4.57,-1.93 1.31,-1.27 2.04,-2.93 2.04,-4.71l0.46 -42.64c0,-3.69 -2.94,-6.63 -6.62,-6.71 -18.69,-0.26 -37.38,-0.79 -55.96,-1.56 -2.06,-0.33 -3.48,0.55 -4.8,1.74z"/>
    <path class="fil0" d="M2109.22 3966.75c-0.34,0 -0.83,0.06 -1.25,0.06 -92.16,17 -185.79,27.53 -278.39,31.63 -1.65,0.09 -3.46,0.91 -4.61,2.17 -1.2,1.29 -1.76,3.01 -1.7,4.75l1.92 42.58c0.09,1.84 0.81,3.47 2.13,4.71 1.24,1.13 2.81,1.72 4.5,1.72l0.27 0c95.27,-4.28 191.51,-15.18 286.04,-32.28 1.77,-0.39 3.34,-1.41 4.27,-2.83 1.03,-1.45 1.32,-3.33 1.11,-4.98l-7.73 -42.03c-0.56,-3.25 -3.38,-5.49 -6.54,-5.49z"/>
    <path class="fil0" d="M1274.82 3941.01c-1.71,-0.5 -3.57,-0.24 -5.01,0.58 -1.64,0.96 -2.67,2.35 -3.1,4.07l-11.19 41.22c-0.88,3.61 1.18,7.23 4.71,8.19 36.19,9.76 74.06,18.58 112.56,26.19 0.42,0.06 0.88,0.1 1.3,0.1 1.34,0 2.57,-0.36 3.68,-1.06 1.49,-1.04 2.53,-2.49 2.79,-4.19l8.26 -41.93c0.71,-3.62 -1.63,-7.06 -5.21,-7.74 -36.73,-7.26 -73.27,-15.78 -108.79,-25.43z"/>
    <path class="fil0" d="M2272.28 3930.35c-37.21,9.83 -73.97,18.52 -109.13,25.87 -1.78,0.32 -3.23,1.4 -4.19,2.86 -0.97,1.51 -1.28,3.26 -0.97,5.03l8.81 41.77c0.61,3.1 3.4,5.24 6.5,5.24 0.42,0 1.03,-0.09 1.38,-0.15 38.39,-8.08 76.14,-17 112.01,-26.63 3.53,-0.99 5.61,-4.58 4.72,-8.09l-10.96 -41.17c-0.96,-3.47 -4.21,-6.07 -8.17,-4.72z"/>
    <path class="fil0" d="M1221.17 3925.61c-89.93,-27.64 -176.71,-63.14 -257.92,-105.58 -3.23,-1.58 -7.21,-0.45 -8.98,2.8l-19.79 37.65c-0.79,1.56 -0.96,3.38 -0.5,5.17 0.59,1.61 1.75,3.07 3.32,3.84 83.83,43.95 173.87,80.81 267.41,109.47 0.68,0.32 1.24,0.38 1.97,0.38 2.82,0 5.48,-1.83 6.33,-4.69l12.6 -40.75c0.51,-1.7 0.34,-3.52 -0.5,-5.09 -0.77,-1.57 -2.24,-2.64 -3.94,-3.19z"/>
    <path class="fil0" d="M2598.13 3821.42c-0.75,-1.57 -2.08,-2.86 -3.72,-3.49 -1.75,-0.58 -3.53,-0.43 -5.12,0.16 -16.94,7.8 -34.06,15.15 -51.5,22.45 -1.46,0.64 -2.79,1.98 -3.53,3.61 -0.63,1.62 -0.63,3.46 0,5.06l16.54 39.35c1.1,2.5 3.53,4.14 6.13,4.14 0.85,0 1.75,-0.24 2.62,-0.59 17.73,-7.37 35.32,-15.18 52.73,-22.96 1.64,-0.75 2.97,-2.07 3.52,-3.73 0.69,-1.65 0.54,-3.48 -0.13,-5.09l-17.55 -38.91z"/>
    <path class="fil0" d="M2927.57 3614.87c-1.96,-0.65 -3.6,0.22 -4.85,1.41 -67.47,54.79 -145.86,106.07 -232.97,152.45 -3.24,1.72 -4.57,5.82 -2.81,8.98l19.96 37.6c1.23,2.28 3.58,3.62 5.86,3.62 1.11,0 2.15,-0.31 3.17,-0.83 89.59,-47.59 170.95,-100.81 241.84,-158.35 2.88,-2.35 3.32,-6.47 1.02,-9.33l-26.8 -33.11c-1.15,-1.42 -2.79,-2.29 -4.44,-2.43z"/>
    <path class="fil0" d="M819.81 3733.9c-1.39,-1.05 -3.23,-1.51 -4.93,-1.05 -1.7,0.23 -3.22,1.27 -4.22,2.73l-23.94 35.21c-2.08,3.03 -1.31,7.08 1.67,9.22 16.56,11.3 32.81,21.98 48.49,31.68 1.04,0.66 2.22,1.04 3.45,1.04 2.21,0 4.37,-1.08 5.67,-3.08l22.66 -36.08c1.93,-3.14 1.03,-7.18 -2.06,-9.18 -15.75,-9.86 -31.33,-20.05 -46.8,-30.49z"/>
    <path class="fil0" d="M2997.78 3623.63c1.64,0 3.17,-0.67 4.44,-1.76 29.43,-26.34 57.22,-54.21 82.51,-82.67 1.25,-1.33 1.83,-3 1.77,-4.86 -0.16,-1.69 -0.95,-3.4 -2.21,-4.48l-31.94 -28.33c-2.86,-2.5 -6.89,-2.2 -9.39,0.62 -23.7,26.6 -49.93,52.86 -78.06,78.03 -2.8,2.42 -3.01,6.69 -0.5,9.33l28.41 31.86c1.23,1.39 2.77,2.12 4.97,2.26z"/>
    <path class="fil0" d="M674.57 3625.92c-2.67,-2.59 -6.86,-2.51 -9.36,0.14l-29.79 30.54c-1.22,1.25 -1.91,3.01 -1.91,4.69 0.08,1.75 0.8,3.47 2.08,4.71 27.42,26.72 56.34,52.81 85.9,77.47 1.28,1.02 2.73,1.53 4.19,1.53 1.89,0 3.81,-0.8 5.14,-2.35l27.36 -32.75c1.19,-1.25 1.77,-3.04 1.64,-4.87 -0.25,-1.68 -1.03,-3.36 -2.43,-4.5 -28.32,-23.56 -56.15,-48.66 -82.81,-74.61z"/>
    <path class="fil0" d="M1927.28 3932.79c1.23,1.08 2.86,1.74 4.46,1.74l0.38 0c19.27,-0.95 38.47,-2.21 57.6,-3.68 1.77,-0.12 3.4,-1.05 4.49,-2.26 1.26,-1.42 1.71,-3.2 1.71,-4.88l-3.38 -42.6c-0.14,-1.69 -1.05,-3.4 -2.38,-4.54 -1.31,-1.02 -2.8,-1.51 -4.86,-1.57 -18.4,1.57 -37.23,2.65 -55.89,3.57 -1.69,0.04 -3.4,0.85 -4.57,2.12 -1.09,1.29 -1.75,3.02 -1.75,4.84l2.05 42.67c0.08,1.68 0.87,3.4 2.14,4.59z"/>
    <path class="fil0" d="M1644.92 3927.94c3.38,0 6.25,-2.6 6.6,-6.03l3.84 -42.41c0.17,-1.77 -0.37,-3.43 -1.45,-4.85 -1.2,-1.4 -2.84,-2.25 -4.57,-2.33 -36.38,-3.34 -73.77,-7.82 -111.46,-13.09 -4.05,-1.05 -6.96,2.04 -7.57,5.58l-6.07 42.12c-0.25,1.71 0.19,3.55 1.21,4.96 1.04,1.38 2.67,2.29 4.44,2.55 38.53,5.59 77.08,10.14 114.34,13.39 0.24,0.11 0.46,0.11 0.69,0.11z"/>
    <path class="fil0" d="M2103.41 3918.58c0.3,0 0.6,0 0.95,-0.08 100.55,-14.06 195.21,-36.36 281.51,-66.06 3.52,-1.25 5.28,-5.01 4.19,-8.45l-13.88 -40.34c-0.62,-1.66 -1.79,-2.96 -3.35,-3.8 -1.7,-0.81 -3.46,-0.87 -5.09,-0.36 -82.82,28.52 -174.02,50.01 -271.27,63.68 -1.72,0.25 -3.23,1.16 -4.26,2.58 -1.17,1.38 -1.59,3.23 -1.31,4.94l5.93 42.22c0.46,3.31 3.34,5.67 6.56,5.67z"/>
    <path class="fil0" d="M1193.16 3838.12c90.46,28.45 184.59,51.17 279.78,67.47 0.38,0 0.76,0.05 1.11,0.05 3.17,0 6.04,-2.38 6.54,-5.52l7.2 -42.08c0.32,-1.67 -0.06,-3.53 -1.09,-4.94 -0.99,-1.44 -2.58,-2.42 -4.35,-2.68 -92.39,-15.79 -184.08,-37.85 -272.43,-65.64 -3.52,-1.48 -7.21,0.89 -8.39,4.35l-12.8 40.67c-0.5,1.62 -0.3,3.46 0.46,5.07 0.86,1.56 2.19,2.74 3.96,3.26z"/>
    <path class="fil0" d="M2549.57 3778.66c0.42,-1.73 0.3,-3.52 -0.46,-5.08l-20.34 -37.56c-1.84,-3.11 -6.07,-4.52 -9.05,-2.67 -31.06,16.8 -64.73,32.5 -100.1,46.77 -3.32,1.4 -5.03,5.16 -3.61,8.69l15.82 39.5c0.58,1.55 1.92,2.94 3.51,3.63 0.85,0.36 1.68,0.48 2.58,0.48 0.89,0 1.68,-0.12 2.52,-0.48 37.73,-15.17 73.39,-31.74 105.89,-49.29 1.56,-0.87 2.79,-2.38 3.25,-4z"/>
    <path class="fil0" d="M1084.07 3800.41c0.83,0.32 1.56,0.47 2.37,0.47 2.71,0 5.25,-1.61 6.25,-4.34l15.07 -39.79c0.6,-1.64 0.52,-3.45 -0.21,-5.09 -0.73,-1.5 -2.06,-2.86 -3.67,-3.46 -17.53,-6.57 -34.9,-13.44 -52.23,-20.56 -3.52,-1.46 -7.27,0.12 -8.68,3.67l-16.19 39.41c-0.73,1.62 -0.67,3.47 0,5.09 0.67,1.55 1.93,2.85 3.6,3.49 17.75,7.33 35.69,14.37 53.69,21.11z"/>
    <path class="fil0" d="M804.89 3606.05c-0.36,-1.76 -1.57,-3.16 -3.03,-4.19 -31.16,-18.89 -62.74,-39.43 -93.64,-61.05 -2.98,-1.99 -7.1,-1.32 -9.23,1.69l-24.52 34.81c-1.02,1.4 -1.4,3.23 -1.1,4.98 0.38,1.71 1.33,3.26 2.73,4.3 32.06,22.5 64.66,43.64 96.79,63.17 1.04,0.6 2.29,0.95 3.46,0.95 2.29,0 4.42,-1.21 5.68,-3.23l22.02 -36.42c0.98,-1.55 1.27,-3.34 0.84,-5.01z"/>
    <path class="fil0" d="M664.18 3517.13c2.22,-2.96 1.64,-7.05 -1.32,-9.27 -75.16,-56.78 -144.44,-119.89 -206.02,-187.48 -1.27,-1.32 -2.86,-2.06 -4.62,-2.12 -1.93,-0.38 -3.53,0.51 -4.8,1.68l-31.55 28.82c-2.66,2.5 -2.87,6.61 -0.35,9.41 64.18,70.41 136.1,135.79 213.75,194.27 1.12,0.94 2.54,1.38 3.94,1.38 2,0 3.98,-0.94 5.37,-2.72l25.6 -33.98z"/>
    <path class="fil0" d="M342.48 3189.11l-34.74 24.87c-1.45,0.94 -2.34,2.5 -2.64,4.26 -0.3,1.75 0.06,3.54 1.09,5 11.35,15.81 22.89,31.12 34.66,46.42 1.19,1.39 2.72,2.35 4.48,2.48 0.32,0.09 0.61,0.09 0.84,0.09 1.46,0 2.94,-0.51 4.11,-1.4l33.62 -26.2c2.87,-2.29 3.44,-6.44 1.15,-9.33 -11.37,-14.71 -22.5,-29.58 -33.37,-44.71 -2.15,-3.02 -6.25,-3.69 -9.19,-1.47z"/>
    <path class="fil0" d="M304.44 3138.2c-18.66,-32.3 -36.24,-65.48 -52.29,-98.63 -0.74,-1.63 -2.14,-2.86 -3.8,-3.46 -1.71,-0.43 -3.41,-0.43 -5.1,0.37l-38.39 18.6c-3.33,1.53 -4.64,5.5 -3,8.84 16.45,34.25 34.69,68.69 54.1,102.14 1.34,2.24 3.54,3.38 5.84,3.38 1.08,0 2.26,-0.35 3.29,-0.94l36.92 -21.32c1.48,-0.89 2.67,-2.38 3.1,-3.99 0.44,-1.75 0.2,-3.52 -0.67,-5z"/>
    <path class="fil0" d="M1783.53 3837.73c3.64,0 6.57,-2.92 6.71,-6.54l0.65 -42.64c0,-1.78 -0.65,-3.47 -1.9,-4.72 -1.25,-1.28 -2.88,-1.98 -4.62,-2.04 -87.01,-1.35 -180.07,-12.4 -276.64,-32.92 -1.56,-0.21 -3.52,-0.06 -5.03,0.98 -1.46,0.96 -2.47,2.44 -2.84,4.19l-8.86 41.78c-0.41,1.68 -0.06,3.54 0.9,4.99 0.95,1.51 2.5,2.53 4.21,2.86 99.96,21.21 196.58,32.67 287.36,34.07l0.05 0z"/>
    <path class="fil0" d="M1836.88 3835.46c1.33,1.18 2.87,1.82 4.55,1.82l0.14 0c41.19,-1.46 80.27,-4.9 116.51,-10.38 1.76,-0.26 3.41,-1.14 4.41,-2.56 1.07,-1.46 1.5,-3.24 1.21,-5.07l-6.41 -42.14c-0.51,-3.7 -4.49,-6.07 -7.5,-5.58 -35.3,5.29 -72.21,8.57 -109.96,9.76 -1.78,0.15 -3.47,0.91 -4.65,2.16 -1.25,1.23 -1.83,3.02 -1.83,4.75l1.48 42.69c0,1.74 0.74,3.37 2.06,4.56z"/>
    <path class="fil0" d="M1383.96 3776.11c0.59,0.13 1.19,0.23 1.76,0.23 2.96,0 5.59,-1.93 6.49,-4.86l11.4 -41.02c0.93,-3.55 -1.11,-7.31 -4.65,-8.27 -17.81,-5.01 -35.9,-10.3 -53.78,-15.8 -1.76,-0.67 -3.58,-0.38 -5.06,0.42 -1.63,0.75 -2.81,2.21 -3.26,3.89l-12.64 40.78c-0.52,1.71 -0.38,3.52 0.44,5.07 0.88,1.54 2.27,2.64 3.96,3.17 18.45,5.8 36.94,11.22 55.33,16.39z"/>
    <path class="fil0" d="M1063.11 3655.86c0.74,0 1.56,-0.17 2.22,-0.43 1.78,-0.59 3.11,-1.8 3.82,-3.4l18.09 -38.6c1.47,-3.4 0.18,-7.36 -3.24,-8.91 -33.44,-15.68 -67.21,-32.66 -100.3,-50.38 -3.25,-1.62 -7.23,-0.38 -8.99,2.8l-20.07 37.52c-1.68,3.24 -0.51,7.26 2.73,9.05 33.67,17.98 68.38,35.51 102.94,51.76 0.9,0.37 1.87,0.6 2.81,0.6z"/>
    <path class="fil0" d="M937.71 3531.09c-0.42,-1.74 -1.53,-3.22 -3.09,-4.12 -81.7,-46.7 -160.39,-98.86 -233.8,-154.94 -2.88,-2.38 -7.06,-1.57 -9.27,1.23l-25.91 33.77c-2.18,2.94 -1.62,7.13 1.34,9.33 75.17,57.59 155.86,111.13 239.94,159.17 1.03,0.58 2.04,0.89 3.23,0.89 2.27,0 4.56,-1.25 5.72,-3.4l21.19 -36.92c0.88,-1.5 1.19,-3.32 0.65,-5.03z"/>
    <path class="fil0" d="M571.78 3263.98c-1.31,-1.11 -2.83,-1.69 -4.54,-1.69 -1.9,-0.15 -3.69,0.79 -4.87,2.12l-28.82 31.63c-1.19,1.25 -1.76,3.03 -1.63,4.8 0,1.77 0.81,3.39 2.13,4.63 14.29,12.87 28.64,25.72 43.33,38.3 1.27,1.04 2.8,1.62 4.44,1.62l0.42 0c1.78,-0.2 3.4,-1.04 4.56,-2.35l27.67 -32.43c2.33,-2.71 2.06,-6.96 -0.73,-9.34 -14.12,-12.13 -28.1,-24.56 -41.96,-37.29z"/>
    <path class="fil0" d="M265.83 2998.07c-0.3,1.69 0,3.46 1.05,4.94 21.16,30.31 44.5,61.5 69.28,92.52 1.17,1.4 2.74,2.21 4.49,2.46 0.21,0.04 0.5,0.04 0.73,0.04 1.56,0 3,-0.5 4.21,-1.45l33.32 -26.65c1.39,-1.09 2.27,-2.63 2.41,-4.4 0.23,-1.84 -0.3,-3.55 -1.4,-4.95 -24.22,-30.23 -46.68,-60.37 -67.15,-89.58 -2.21,-3.02 -6.24,-3.75 -9.24,-1.69l-35.02 24.42c-1.4,1.04 -2.35,2.52 -2.67,4.33z"/>
    <path class="fil0" d="M238.75 2957.93c0.54,0.08 0.98,0.25 1.49,0.25 1.18,0 2.51,-0.4 3.62,-1.21l35.73 -23.25c3.1,-1.99 3.92,-6.02 2,-9.17 -51.2,-78.79 -94.79,-161.75 -129.69,-246.56 -1.37,-3.35 -5.14,-5 -8.6,-3.6l-39.41 16.17c-1.63,0.67 -2.94,1.92 -3.67,3.56 -0.59,1.59 -0.67,3.46 0,5.08 36.2,87.95 81.36,174.01 134.44,255.88 0.9,1.46 2.42,2.51 4.11,2.86z"/>
    <path class="fil0" d="M113.2 2578.26c0.82,-1.6 0.96,-3.47 0.38,-5.09 -5.43,-16.6 -10.67,-33.96 -16.03,-53.15 -0.95,-3.62 -4.65,-5.45 -8.16,-4.65l-41.1 11.48c-1.63,0.44 -3.11,1.61 -3.99,3.09 -0.89,1.54 -1.1,3.4 -0.58,5.07 5.71,20.52 11.17,38.76 16.77,55.6 0.87,2.8 3.53,4.64 6.31,4.64 0.73,0 1.33,-0.13 2.06,-0.36l40.52 -13.31c1.71,-0.51 3,-1.76 3.81,-3.32z"/>
    <path class="fil0" d="M71.07 2454.4c-6.45,-36.11 -11.62,-73.19 -15.3,-110.23 -0.45,-3.55 -3.63,-7.08 -7.34,-5.9l-42.38 4.26c-1.77,0.16 -3.38,1.04 -4.57,2.38 -1.04,1.3 -1.6,3.08 -1.47,4.92 3.9,38.16 9.26,76.79 16.11,114.65 0.32,1.69 1.24,3.17 2.75,4.2 1.11,0.81 2.47,1.25 3.79,1.25 0.37,0 0.75,-0.08 1.19,-0.08l41.94 -7.64c3.61,-0.65 6.02,-4.12 5.29,-7.79z"/>
    <path class="fil0" d="M1272.89 3629.14c-0.59,1.63 -0.36,3.55 0.43,5.08 0.75,1.56 2.22,2.79 3.83,3.34 38.55,12.66 76.57,22.7 113,30.05 0.43,0.06 0.87,0.15 1.31,0.15 3.1,0 5.89,-2.13 6.49,-5.3l8.5 -41.78c0.73,-3.59 -1.6,-7.11 -5.15,-7.77 -35,-7.21 -70.95,-16.77 -106.81,-28.48 -3.42,-1.4 -7.18,0.81 -8.35,4.19l-13.25 40.53z"/>
    <path class="fil0" d="M1224.65 3618.7c0.89,0 1.91,-0.23 2.72,-0.66 1.61,-0.65 2.86,-2.05 3.44,-3.67l15.23 -39.86c0.68,-1.7 0.59,-3.46 -0.08,-5 -0.72,-1.71 -2.06,-2.94 -3.64,-3.63 -81.51,-31.04 -165.23,-73.24 -248.83,-125.39 -1.4,-0.96 -3.16,-1.02 -5,-0.82 -1.71,0.38 -3.27,1.46 -4.14,2.95l-22.61 36.19c-1.89,3.17 -1.01,7.29 2.18,9.2 86.41,53.98 173.4,97.82 258.37,130.26 0.75,0.2 1.54,0.43 2.36,0.43z"/>
    <path class="fil0" d="M850.41 3343.69c-1.76,0.25 -3.38,1.1 -4.41,2.57l-25.75 34c-2.28,2.86 -1.61,7.04 1.25,9.18 15.38,11.77 30.83,23.17 46.36,34.29 1.17,0.86 2.5,1.32 3.89,1.32 0.3,0 0.74,-0.08 1.03,-0.08 1.77,-0.29 3.37,-1.32 4.42,-2.72l24.86 -34.64c1.04,-1.46 1.45,-3.25 1.16,-4.91 -0.3,-1.87 -1.23,-3.41 -2.62,-4.38 -15.15,-10.87 -30.33,-22.06 -45.32,-33.38 -1.31,-1.01 -3.17,-1.84 -4.87,-1.26z"/>
    <path class="fil0" d="M644.65 3160.04c-26.58,-26.69 -52.45,-54.21 -77.12,-81.71 -1.17,-1.33 -2.8,-2.21 -4.54,-2.28 -1.28,-0.22 -3.46,0.52 -4.8,1.77l-31.7 28.47c-2.78,2.42 -2.94,6.6 -0.59,9.33 25.36,28.31 51.94,56.56 79.15,83.83 1.27,1.34 2.97,2.01 4.71,2.01 1.78,0 3.46,-0.67 4.72,-2.01l30.17 -30.06c2.55,-2.59 2.62,-6.77 0,-9.35z"/>
    <path class="fil0" d="M493.11 3074.52c1.63,0 3.09,-0.54 4.34,-1.56l32.52 -27.49c1.4,-1.19 2.21,-2.74 2.33,-4.58 0.08,-1.76 -0.36,-3.46 -1.52,-4.85 -60.83,-71.72 -116.95,-147.64 -166.69,-225.44 -0.87,-1.6 -2.42,-2.66 -4.1,-2.95 -1.77,-0.29 -3.52,-0.15 -5.1,0.8l-35.95 23.05c-1.49,0.96 -2.5,2.48 -2.97,4.25 -0.27,1.63 0,3.46 0.99,4.95 51.38,80.31 108.91,158.17 171.14,231.45 1.33,1.64 3.23,2.38 5,2.38z"/>
    <path class="fil0" d="M257.54 2741.77c0.86,1.55 2.25,2.63 4.03,3.15 0.6,0.16 1.16,0.31 1.77,0.31 1.08,0 2.19,-0.37 3.22,-0.89l37.22 -21.03c1.54,-0.89 2.65,-2.35 3.11,-4 0.5,-1.66 0.29,-3.53 -0.58,-5.06 -9.27,-16.26 -18.1,-32.73 -26.78,-49.27 -1.61,-3.26 -5.73,-4.57 -9.01,-2.8l-37.71 19.71c-1.54,0.73 -2.7,2.22 -3.31,3.91 -0.5,1.62 -0.3,3.53 0.44,5.06 9.04,17.14 18.18,34.14 27.6,50.91z"/>
    <path class="fil0" d="M82.32 2315.53c9.56,35.89 20.81,73.12 33.46,110.65 0.58,1.6 1.77,3 3.33,3.81 0.96,0.45 1.98,0.67 2.94,0.67 0.73,0 1.4,-0.15 2.15,-0.38l40.44 -13.61c1.6,-0.66 3.07,-1.83 3.8,-3.38 0.77,-1.54 0.91,-3.39 0.33,-5.15 -12.38,-36.58 -23.28,-72.52 -32.53,-107.02 -0.35,-1.71 -1.46,-3.17 -3,-4.06 -1.57,-0.81 -3.34,-1.17 -5.09,-0.65l-41.19 10.96c-3.52,1.02 -5.59,4.63 -4.64,8.15z"/>
    <path class="fil0" d="M83.25 1965.95c-1.22,-1.09 -2.91,-1.69 -4.52,-1.69l-0.31 0 -42.64 1.85c-3.64,0.15 -6.51,3.24 -6.33,6.89 3.96,95.17 17.05,191.54 38.9,286.29 0.73,3.09 3.47,5.13 6.46,5.13 0.52,0 0.96,-0.08 1.48,-0.12l41.54 -9.59c1.69,-0.43 3.25,-1.47 4.12,-2.94 0.97,-1.47 1.26,-3.22 0.9,-5.02 -21.2,-91.79 -33.76,-184.75 -37.54,-276.1 0,-1.84 -0.8,-3.45 -2.07,-4.71z"/>
    <path class="fil0" d="M78.14 1865.62l0.3 0c3.54,0 6.45,-2.79 6.62,-6.41 0.73,-18.6 1.69,-37.05 3.06,-55.66 0.31,-3.59 -2.41,-6.83 -6.01,-7.19l-42.52 -3.25c-1.9,-0.14 -3.53,0.46 -4.84,1.62 -1.34,1.11 -2.23,2.78 -2.36,4.51 -1.47,19.33 -2.58,38.8 -3.23,57.92 -0.17,3.78 2.78,6.79 6.37,6.93l42.6 1.54z"/>
    <path class="fil0" d="M36.06 1730.83l42.07 7.19c0.31,0 0.75,0.1 1.06,0.1 3.21,0 6.02,-2.4 6.61,-5.54 6.15,-36.13 13.98,-72.74 23.24,-109 0.44,-1.69 0.13,-3.54 -0.75,-5 -0.87,-1.57 -2.36,-2.59 -4.11,-3.04l-41.37 -10.44c-1.67,-0.59 -3.52,-0.29 -4.98,0.68 -1.54,0.88 -2.65,2.32 -3.08,4.03 -9.72,38.62 -17.8,76.71 -24.14,113.29 -0.29,1.75 0.14,3.61 1.17,5.01 0.96,1.48 2.53,2.35 4.27,2.73z"/>
    <path class="fil0" d="M913.23 3324.22c2.2,0 4.4,-1.13 5.65,-3.25l22.29 -36.28c0.87,-1.45 1.17,-3.3 0.75,-5.09 -0.32,-1.67 -1.4,-3.15 -2.96,-4.02 -30.29,-18.6 -60.67,-39.87 -90.46,-63.25 -1.33,-1.12 -3.32,-2.06 -4.86,-1.33 -1.77,0.14 -3.4,1.11 -4.44,2.52l-26.32 33.53c-1.19,1.39 -1.61,3.1 -1.42,4.85 0.23,1.69 1.13,3.38 2.46,4.42 32,25.08 64.21,47.59 95.83,66.94 1.11,0.59 2.27,0.96 3.46,0.96z"/>
    <path class="fil0" d="M769.07 3219.26c1.16,1.1 2.79,1.69 4.42,1.69l0.43 0c1.77,-0.13 3.38,-0.96 4.57,-2.35l27.8 -32.14c2.51,-2.82 2.2,-6.9 -0.61,-9.35 -66.02,-57.37 -130.17,-125.56 -190.61,-202.91 -2.29,-2.94 -6.48,-3.48 -9.34,-1.19l-33.61 26.18c-1.49,1.12 -2.38,2.66 -2.53,4.49 -0.27,1.78 0.24,3.47 1.34,4.84 62.72,80.36 129.45,151.32 198.15,210.76z"/>
    <path class="fil0" d="M502.81 2915.41c0.96,1.47 2.53,2.5 4.3,2.72 0.36,0.15 0.73,0.22 1.14,0.22 1.35,0 2.68,-0.44 3.79,-1.24l35.21 -24.14c3.02,-2.02 3.84,-6.07 1.68,-9.1 -10.49,-15.44 -20.87,-31.04 -31.02,-46.85 -1.98,-3.04 -6.1,-3.91 -9.21,-2.01l-35.81 23.1c-1.48,0.97 -2.57,2.5 -2.86,4.29 -0.46,1.7 -0.09,3.45 0.88,5 10.46,16.18 21.05,32.29 31.91,48.02z"/>
    <path class="fil0" d="M330.26 2484.54l-39.7 15.76c-1.61,0.58 -2.95,1.84 -3.62,3.53 -0.67,1.56 -0.73,3.46 -0.06,5.02 14.05,35.21 29.4,70.81 45.67,105.98 0.73,1.62 2.13,2.77 3.76,3.37 0.75,0.29 1.48,0.46 2.29,0.46 0.96,0 1.89,-0.23 2.79,-0.58l38.62 -17.95c3.36,-1.65 4.76,-5.58 3.23,-8.83 -15.69,-33.84 -30.59,-68.42 -44.35,-103.07 -1.33,-3.38 -5.09,-5.08 -8.62,-3.68z"/>
    <path class="fil0" d="M269.65 2458.96c0.86,0.32 1.76,0.58 2.79,0.58 0.75,0 1.48,-0.22 2.23,-0.43l40 -14.79c3.48,-1.32 5.15,-5.13 3.98,-8.59 -32.66,-88.35 -59.45,-178.81 -79.44,-268.84 -0.46,-1.76 -1.46,-3.23 -2.93,-4.19 -1.49,-0.94 -3.39,-1.26 -5.02,-0.8l-41.62 9.28c-3.54,0.79 -5.83,4.33 -5.03,7.99 20.61,92.59 48.12,185.5 81.56,276.04 0.61,1.61 1.88,2.93 3.47,3.75z"/>
    <path class="fil0" d="M217.89 2056.86c-2.94,-18.54 -5.81,-37 -8.32,-55.54 -0.22,-1.68 -1.1,-3.37 -2.58,-4.42 -1.32,-1.01 -3.03,-1.68 -4.87,-1.25l-42.34 5.66c-1.71,0.3 -3.32,1.12 -4.38,2.53 -1.08,1.44 -1.52,3.21 -1.23,4.93 2.52,19.11 5.38,38.15 8.52,57.06 0.31,1.85 1.21,3.4 2.67,4.35 1.17,0.9 2.5,1.31 3.84,1.31 0.43,0 0.73,-0.06 1.17,-0.06l42.08 -6.89c3.52,-0.68 6.03,-4 5.43,-7.67z"/>
    <path class="fil0" d="M186.62 1728.76l0.17 0c1.7,0 3.3,-0.66 4.54,-1.92 1.31,-1.19 1.97,-2.87 2.15,-4.57 0.73,-37.44 2.8,-75.01 6.02,-111.67 0.31,-3.6 -2.36,-6.89 -6.02,-7.18l-42.51 -3.75c-1.48,-0.67 -3.55,0.35 -4.87,1.46 -1.33,1.1 -2.21,2.73 -2.35,4.48 -3.38,38.62 -5.52,77.46 -6.34,115.33 0,3.75 2.97,6.79 6.62,6.85l42.59 0.96z"/>
    <path class="fil0" d="M197.87 1560.83c0.3,0.08 0.61,0.08 0.9,0.08 1.47,0 2.88,-0.5 4.05,-1.4 1.38,-1.18 2.29,-2.64 2.47,-4.5 11.57,-93.25 31.42,-184.81 59.25,-272.43 0.57,-1.69 0.35,-3.45 -0.45,-4.99 -0.73,-1.56 -2.21,-2.81 -3.92,-3.34l-40.66 -12.85c-3.38,-1.34 -7.21,0.73 -8.25,4.33 -28.83,90.4 -49.4,185.5 -61.39,282.44 -0.44,3.61 2.13,6.92 5.81,7.33l42.2 5.32z"/>
    <path class="fil0" d="M293.79 1181.46c0.8,0.35 1.6,0.5 2.52,0.5 0.86,0 1.73,-0.15 2.56,-0.5 1.67,-0.65 2.86,-1.99 3.59,-3.62 6.56,-16.25 13.69,-33.01 21.94,-51.24 0.72,-1.7 0.87,-3.54 0.2,-5.14 -0.66,-1.64 -1.91,-3.05 -3.46,-3.7l-38.88 -17.57c-3.24,-1.54 -7.29,0 -8.76,3.31 -8.16,17.87 -15.82,35.89 -22.87,53.31 -1.4,3.45 0.2,7.28 3.6,8.68l39.57 15.97z"/>
    <path class="fil0" d="M337.32 1061.5c1.03,0.66 2.16,0.89 3.26,0.89 2.34,0 4.52,-1.21 5.81,-3.4 17.99,-31.45 37.94,-63.32 59.12,-94.43 2.07,-3.02 1.26,-7.14 -1.7,-9.13l-35.3 -24.05c-1.47,-1.02 -3.32,-1.38 -5,-1.02 -1.77,0.2 -3.23,1.25 -4.27,2.7 -22.06,32.5 -42.75,65.63 -61.36,98.3 -0.85,1.52 -1.17,3.37 -0.64,5.01 0.5,1.76 1.55,3.22 3.08,4.03l37 21.11z"/>
    <path class="fil0" d="M580.78 2837.75c0.23,0.07 0.44,0.07 0.73,0.07 1.49,0 2.94,-0.52 4.14,-1.49l33.39 -26.52c2.86,-2.3 3.37,-6.49 1.02,-9.36 -21.98,-27.79 -43.4,-58.12 -63.31,-90.39 -0.98,-1.54 -2.44,-2.59 -4.19,-3 -1.63,-0.19 -3.54,-0.11 -5,0.88l-36.2 22.55c-3.11,1.94 -4.07,6.04 -2.06,9.13 21.16,34.21 43.66,66.35 67.07,95.68 1.02,1.41 2.64,2.21 4.41,2.44z"/>
    <path class="fil0" d="M483.68 2692.48c0.59,0.23 1.2,0.32 1.76,0.32 1.18,0 2.38,-0.32 3.32,-0.9l37.29 -20.73c1.55,-0.89 2.67,-2.23 3.16,-4.01 0.53,-1.75 0.24,-3.53 -0.57,-4.98 -42.44,-76.14 -79.38,-162.2 -109.73,-255.97 -0.52,-1.62 -1.79,-3.01 -3.31,-3.75 -1.63,-0.94 -3.4,-1.11 -5.18,-0.44l-40.43 13.26c-3.47,1.07 -5.38,4.83 -4.28,8.37 31.33,96.58 69.74,186.01 114,265.66 0.91,1.56 2.3,2.74 3.98,3.17z"/>
    <path class="fil0" d="M325.11 2248.75c-3.52,0.81 -5.74,4.35 -4.98,8.01 4.17,18.84 8.66,37.51 13.46,56.04 0.79,3.03 3.45,5.03 6.39,5.03 0.59,0 1.11,-0.16 1.6,-0.29l41.34 -10.54c3.52,-0.88 5.72,-4.49 4.86,-8.08 -4.63,-18.02 -8.99,-36.19 -13.23,-54.56 -0.76,-3.63 -4.57,-5.6 -7.94,-5.03l-41.5 9.42z"/>
    <path class="fil0" d="M332.17 1967.47c-3.01,-36.9 -5.21,-74.55 -6.46,-112.15 -0.14,-3.52 -3.11,-6.38 -6.62,-6.38l-0.23 0 -42.64 1.31c-1.71,0.08 -3.47,0.87 -4.63,2.08 -1.21,1.29 -1.86,3 -1.81,4.77 1.21,37.53 3.41,76.21 6.62,115.03 0.18,1.77 1.04,3.39 2.38,4.56 1.17,0.96 2.73,1.56 4.26,1.56l0.61 0 42.5 -3.54c3.61,-0.36 6.3,-3.53 6.02,-7.23z"/>
    <path class="fil0" d="M289.05 1507.86c-1.27,1.11 -2.27,2.67 -2.5,4.44 -11.75,90.67 -17.77,183.79 -17.77,276.48l0 10.64c0,3.64 2.94,6.63 6.62,6.63l42.67 0c3.66,0 6.58,-3 6.58,-6.63l0 -10.64c0.1,-90.48 5.89,-181.09 17.37,-269.2 0.44,-3.67 -2.06,-7.05 -5.72,-7.43l-42.21 -5.59c-1.69,-0.44 -3.54,0.3 -5.05,1.32z"/>
    <path class="fil0" d="M324.1 1336.79c-3.69,-0.5 -7.23,1.56 -7.95,5.17 -4.12,18.74 -7.94,37.58 -11.47,56.5 -0.67,3.67 1.7,7.12 5.3,7.7l41.92 7.85c0.27,0.09 0.75,0.15 1.18,0.15 3.07,0 5.88,-2.18 6.47,-5.41 3.54,-18.36 7.19,-36.65 11.18,-55.05 0.79,-3.53 -1.49,-7.06 -5.01,-7.77l-41.62 -9.14z"/>
    <path class="fil0" d="M402.77 1074.36l39.73 15.38c0.72,0.22 1.62,0.38 2.37,0.38 2.65,0 5.13,-1.63 6.19,-4.22 13.81,-35.44 28.49,-70.01 43.95,-102.73 0.73,-1.62 0.82,-3.48 0.21,-5.09 -0.48,-1.71 -1.83,-3 -3.46,-3.84l-38.6 -18.08c-3.24,-1.1 -7.27,0 -8.81,3.24 -16.33,34.94 -31.64,70.63 -45.39,106.28 -1.32,3.46 0.28,7.29 3.81,8.67z"/>
    <path class="fil0" d="M510.61 935.81c0.96,0.5 2.04,0.74 3.11,0.74 0.64,0 1.31,-0.09 1.96,-0.3 1.7,-0.6 3.11,-1.77 3.9,-3.31 42.95,-84.17 92.97,-163.36 148.8,-235.56 2.21,-2.95 1.7,-7.08 -1.25,-9.35l-33.68 -26.13c-1.46,-1.05 -3.17,-1.64 -5,-1.34 -1.69,0.17 -3.33,1.19 -4.41,2.52 -57.83,75.09 -109.75,157.24 -154.36,244.34 -1.58,3.33 -0.26,7.27 2.97,8.9l37.96 19.49z"/>
    <path class="fil0" d="M730.44 612.25c1.26,1.1 2.9,1.7 4.51,1.7 1.75,-0.09 3.67,-0.74 4.91,-2.21 12.47,-13.77 25.1,-27.27 38.17,-40.58 1.19,-1.27 1.94,-3.03 1.94,-4.74 0,-1.77 -0.79,-3.44 -2.07,-4.69l-30.54 -29.73c-2.7,-2.64 -6.75,-2.5 -9.31,0.07 -13.56,13.85 -26.85,28.03 -39.72,42.14 -1.17,1.35 -1.78,3.03 -1.6,4.79 0,1.79 0.79,3.41 2.09,4.65l31.63 28.6z"/>
    <path class="fil0" d="M812.31 514.57c1.25,1.62 3.11,2.38 5.01,2.38 1.55,0 3.09,-0.54 4.27,-1.54 28.52,-23.99 58.09,-47.1 87.98,-68.57 1.38,-1.1 2.34,-2.65 2.65,-4.34 0.27,-1.77 -0.17,-3.46 -1.19,-4.93l-24.95 -34.66c-2.11,-3 -6.4,-3.66 -9.26,-1.48 -30.81,22.17 -61.47,46.12 -91.26,71.12 -1.35,1.1 -2.2,2.82 -2.37,4.51 -0.14,1.83 0.44,3.52 1.63,4.92l27.49 32.58z"/>
    <path class="fil0" d="M436.46 2267.72c0.75,0 1.41,-0.06 2.15,-0.37l40.37 -13.44c3.54,-1.26 5.43,-4.94 4.27,-8.38 -11.33,-33.79 -20.87,-69.68 -28.66,-106.74 -0.29,-1.77 -1.33,-3.24 -2.79,-4.19 -1.51,-1.05 -3.26,-1.25 -5.03,-0.97l-41.79 8.84c-1.75,0.37 -3.21,1.39 -4.26,2.86 -0.87,1.48 -1.25,3.33 -0.87,5.02 8.52,39.93 18.67,77.94 30.29,112.73 0.98,2.82 3.53,4.65 6.31,4.65z"/>
    <path class="fil0" d="M373.01 1804.3c-0.67,19.98 -0.96,39.92 -0.96,59.64 0,80.31 5.79,157.4 17.2,229.12 0.58,3.23 3.4,5.57 6.6,5.57 0.33,0 0.74,-0.06 1.06,-0.06l42.06 -6.68c1.76,-0.23 3.32,-1.19 4.33,-2.67 1.06,-1.4 1.49,-3.23 1.26,-4.92 -11.02,-68.94 -16.62,-143.12 -16.62,-220.37 0,-19.13 0.32,-38.32 1.04,-57.74 0,-1.75 -0.6,-3.38 -1.85,-4.71 -1.17,-1.32 -2.88,-2.07 -4.64,-2.21l-42.66 -1.47c-3.66,-0.89 -6.76,2.8 -6.82,6.48z"/>
    <path class="fil0" d="M429.11 1700.44c0.23,0.15 0.45,0.15 0.68,0.15 1.55,0 3.03,-0.5 4.19,-1.63 1.34,-1.11 2.2,-2.65 2.43,-4.49 1.83,-18.45 3.9,-36.97 6.27,-55.59 0.26,-1.69 -0.24,-3.53 -1.34,-4.93 -1.04,-1.4 -2.67,-2.35 -4.43,-2.5l-42.23 -5.46c-1.75,-0.5 -3.52,0.3 -4.99,1.32 -1.3,1.12 -2.2,2.67 -2.5,4.42 -2.43,19.2 -4.57,38.39 -6.46,57.31 -0.15,1.83 0.37,3.61 1.46,4.92 1.17,1.34 2.72,2.21 4.57,2.36l42.35 4.13z"/>
    <path class="fil0" d="M476.78 1238.97c-11.79,35.68 -22.9,72.75 -33.13,110.34 -0.99,3.6 1.13,7.2 4.68,8.16l41.16 11.25c0.53,0.15 1.11,0.29 1.71,0.29 1.17,0 2.35,-0.35 3.3,-0.88 1.55,-0.87 2.75,-2.35 3.17,-4.12 9.87,-36.11 20.66,-72.35 32.22,-107.54 0.58,-1.69 0.46,-3.47 -0.35,-5.13 -0.83,-1.56 -2.17,-2.75 -3.87,-3.25l-40.51 -13.3c-3.38,-1.35 -7.27,0.71 -8.37,4.17z"/>
    <path class="fil0" d="M619.47 917.78c-3.23,-1.62 -7.29,-0.5 -8.98,2.86 -43.69,84.16 -82.45,173 -115.02,263.98 -0.58,1.65 -0.46,3.47 0.29,5.09 0.71,1.56 2.05,2.86 3.75,3.4l40.26 14.27c0.73,0.21 1.45,0.42 2.19,0.42 2.64,0 5.23,-1.75 6.15,-4.4 31.71,-88.4 69.36,-174.92 111.96,-257.05 0.88,-1.55 1.03,-3.4 0.42,-5.01 -0.49,-1.71 -1.67,-3.1 -3.2,-3.89l-37.82 -19.66z"/>
    <path class="fil0" d="M665.73 824.81c0.45,1.75 1.54,3.24 3.08,4.07l36.69 21.83c1,0.59 2.24,0.96 3.36,0.96 0.56,0 1.08,-0.16 1.69,-0.29 1.58,-0.46 3.09,-1.48 4.04,-3.02 9.52,-16.13 19.33,-32.08 29.36,-47.9 1.89,-3.17 1.01,-7.19 -2.16,-9.19l-35.98 -22.73c-2.99,-1.97 -7.18,-0.95 -9.09,2.07 -10.32,16.26 -20.47,32.66 -30.26,49.2 -0.85,1.46 -1.1,3.31 -0.72,5z"/>
    <path class="fil0" d="M867.32 544.07c0.11,1.78 0.9,3.39 2.2,4.64l32.15 28.08c1.24,1.12 2.82,1.62 4.34,1.62 1.94,0 3.69,-0.79 5.03,-2.21 25.02,-28.54 50.72,-55.95 76.39,-81.68 1.27,-1.19 2.02,-2.8 2.02,-4.67 0,-1.69 -0.68,-3.44 -1.93,-4.63l-30.15 -30.22c-2.5,-2.59 -6.76,-2.59 -9.35,0 -27.15,27.08 -53.75,55.47 -79.05,84.22 -1.18,1.39 -1.76,3.15 -1.64,4.85z"/>
    <path class="fil0" d="M1023.27 457.57c1.76,0 3.39,-0.66 4.57,-1.77 68.99,-64.13 143.18,-121.42 220.51,-170.48 1.45,-0.96 2.5,-2.44 2.93,-4.13 0.35,-1.75 0,-3.51 -0.9,-5l-22.87 -36.02c-2.04,-3.11 -6.17,-3.98 -9.18,-2.07 -80.17,50.87 -157.11,110.25 -228.53,176.8 -2.72,2.52 -2.81,6.62 -0.37,9.35l29 31.16c1.31,1.4 3.36,2.5 4.85,2.15z"/>
    <path class="fil0" d="M1341.42 230.23c1.04,0 2.15,-0.22 3.13,-0.72 16.29,-8.67 32.96,-17.09 49.74,-25.24 3.35,-1.56 4.68,-5.49 3.13,-8.83l-18.47 -38.39c-1.53,-3.29 -5.49,-4.63 -8.82,-3.09 -17.14,8.15 -34.11,16.69 -51.75,26.05 -3.27,1.75 -4.46,5.74 -2.81,8.95l19.98 37.76c1.19,2.27 3.54,3.52 5.87,3.52z"/>
    <path class="fil0" d="M1449.18 166.75c0.98,0.38 1.84,0.59 2.82,0.59 0.81,0 1.54,-0.13 2.26,-0.35 34.27,-12.59 69.88,-24.21 106.08,-34.36 1.69,-0.51 3.07,-1.71 3.96,-3.24 0.9,-1.45 1.08,-3.24 0.59,-4.99l-11.63 -40.97c-0.94,-3.6 -4.56,-5.45 -8.22,-4.64 -37.08,10.52 -73.98,22.5 -109.96,35.67 -1.71,0.58 -3.01,1.85 -3.76,3.45 -0.74,1.56 -0.83,3.38 -0.16,5.01l14.58 40.02c0.65,1.75 1.84,3.09 3.45,3.81z"/>
    <path class="fil0" d="M537.96 1684.02c1.63,0 3.27,-0.65 4.59,-1.83 1.17,-1.19 2,-2.94 2.06,-4.65 0.79,-34.62 3.96,-71.63 9.42,-110.02 0.42,-3.61 -2.09,-6.97 -5.66,-7.5l-42.15 -5.94c-3.67,-0.74 -7,2.06 -7.49,5.56 -5.77,39.79 -9.12,79.01 -10.11,116.44 -0.06,3.6 2.9,6.78 6.48,6.84l42.68 1.09 0.19 0z"/>
    <path class="fil0" d="M639.86 1237.65l-39.51 -16.03c-1.69,-0.74 -3.53,-0.74 -5.16,0 -1.63,0.66 -2.87,1.97 -3.54,3.58 -38.23,94.75 -66.18,187.93 -83.4,277.24 -0.29,1.77 0.07,3.43 1.05,4.94 1.02,1.44 2.56,2.48 4.26,2.71l41.91 8.02c0.37,0.06 0.84,0.15 1.21,0.15 3.15,0 5.94,-2.3 6.51,-5.46 16.41,-85.61 43.49,-175.41 80.25,-266.54 1.4,-3.46 -0.22,-7.28 -3.58,-8.6z"/>
    <path class="fil0" d="M682.74 1147.49c2.49,0 4.84,-1.42 6,-3.86 7.96,-16.6 16.27,-33.44 24.89,-50.15 1.65,-3.23 0.44,-7.2 -2.92,-8.89l-37.86 -19.5c-3.02,-1.62 -7.22,-0.41 -8.87,2.82 -8.93,17.12 -17.53,34.4 -25.84,51.79 -0.73,1.52 -0.73,3.3 -0.2,5.05 0.62,1.63 1.83,3.05 3.43,3.77l38.54 18.31c0.9,0.43 1.84,0.67 2.82,0.67z"/>
    <path class="fil0" d="M886.75 726.84c-1.78,0.15 -3.38,1.1 -4.42,2.51 -23.84,30.22 -46.92,61.32 -68.86,92.37 -1.02,1.4 -1.48,3.15 -1.09,4.95 0.29,1.69 1.26,3.29 2.72,4.25l34.87 24.67c1.11,0.73 2.42,1.17 3.82,1.17 2.09,0 4.13,-1.04 5.37,-2.88 21.26,-30 43.75,-60.21 67.16,-90.01 2.2,-2.89 1.77,-7 -1.19,-9.28l-33.52 -26.34c-1.32,-1.17 -3.17,-2 -4.86,-1.4z"/>
    <path class="fil0" d="M1155.08 507.67l-28.84 -31.41c-2.49,-2.63 -6.63,-2.72 -9.42,-0.38 -70.17,64.56 -136.88,134.69 -198.29,208.67 -2.28,2.88 -1.93,6.99 0.89,9.34l32.77 27.22c1.21,1.02 2.68,1.53 4.22,1.53 1.98,0.3 3.9,-0.81 5.11,-2.35 60.49,-72.67 125.44,-141.06 193.26,-203.14 1.26,-1.23 2.07,-2.88 2.07,-4.72 0.14,-1.77 -0.53,-3.46 -1.76,-4.77z"/>
    <path class="fil0" d="M1203.97 400.21c-1.38,1.1 -2.21,2.65 -2.43,4.5 -0.16,1.67 0.44,3.44 1.47,4.84l27.2 32.94c1.03,1.43 2.73,2.16 4.44,2.31 0.29,0.15 0.43,0.15 0.67,0.15 1.52,0 2.99,-0.55 4.26,-1.65 14.32,-11.83 29.05,-23.44 43.9,-34.85 2.89,-2.28 3.38,-6.46 1.17,-9.42l-26.04 -33.67c-2.29,-2.94 -6.45,-3.46 -9.34,-1.27 -15.29,11.77 -30.36,23.82 -45.3,36.13z"/>
    <path class="fil0" d="M1487.22 209.86c-0.51,1.6 -0.32,3.46 0.51,5l20.51 37.38c0.9,1.55 2.35,2.65 3.98,3.15 0.58,0.24 1.26,0.31 1.92,0.31 1.1,0 2.19,-0.31 3.16,-0.89 33.47,-18.38 67.07,-35.39 99.8,-50.52 1.57,-0.73 2.8,-2.07 3.4,-3.75 0.58,-1.72 0.52,-3.49 -0.23,-5.09l-18.02 -38.62c-1.59,-3.38 -5.59,-4.92 -8.82,-3.3 -34.13,15.82 -68.76,33.47 -103.03,52.35 -1.56,0.9 -2.72,2.24 -3.17,3.99z"/>
    <path class="fil0" d="M1659.48 178.02c1.02,2.5 3.47,4.05 6.02,4.05 0.87,0 1.77,-0.15 2.65,-0.53 86.78,-36.71 176.08,-65.23 265.37,-84.72 3.61,-0.81 5.87,-4.34 5.09,-7.87l-9.06 -41.71c-0.36,-1.68 -1.4,-3.32 -2.92,-4.19 -1.4,-0.95 -3.25,-1.23 -5.03,-0.88 -92.51,20.23 -185.1,49.8 -275.31,87.82 -1.61,0.74 -2.87,2.01 -3.6,3.68 -0.66,1.63 -0.57,3.44 0.07,5.09l16.71 39.27z"/>
    <path class="fil0" d="M2163 53.99c1.26,1.26 2.94,2 4.72,2l3.46 0c35.96,0 72.28,1.34 108.04,3.99l0.44 0c3.54,0 6.45,-2.65 6.68,-6.19l3.17 -42.43c0.12,-1.87 -0.44,-3.53 -1.63,-4.86 -1.11,-1.41 -2.71,-2.15 -4.49,-2.3 -39.8,-2.94 -78.7,-4.27 -115.75,-4.19 -3.76,0 -6.69,3.02 -6.69,6.7l0.14 42.57c0,1.85 0.67,3.46 1.92,4.71z"/>
    <path class="fil0" d="M2038.42 75.85c1.17,0.9 2.48,1.4 3.96,1.4 0.38,0 0.58,0 0.94,-0.06 18.25,-2.59 36.74,-4.8 55.24,-6.69 3.68,-0.29 6.31,-3.54 5.88,-7.2l-4.19 -42.47c-0.38,-3.3 -3.17,-5.92 -6.57,-5.92 -0.2,0 -0.43,0 -0.73,0.03 -20.05,2.07 -39.32,4.28 -57.43,6.86 -3.61,0.5 -6.09,3.89 -5.6,7.56l5.89 42.23c0.23,1.68 1.1,3.23 2.61,4.27z"/>
    <path class="fil0" d="M843.35 1059.38c-0.59,-1.78 -1.69,-3.12 -3.24,-4l-37.65 -20.05c-1.64,-0.9 -3.4,-1.1 -5.11,-0.45 -1.66,0.45 -3.06,1.68 -3.9,3.25 -19.1,35.81 -35.58,71.41 -49.27,105.91 -1.31,3.35 0.39,7.24 3.84,8.58l39.58 15.58c0.79,0.4 1.61,0.55 2.51,0.55 2.62,0 5.15,-1.65 6.16,-4.21 13,-32.95 28.68,-66.71 46.54,-100.18 0.82,-1.53 1.04,-3.39 0.53,-4.99z"/>
    <path class="fil0" d="M1036.35 783.63l-31.77 -28.54c-1.16,-1.1 -2.79,-1.69 -4.41,-1.69 -1.79,0.51 -3.7,0.88 -4.96,2.21 -68.3,75.96 -126.48,153.94 -173.05,231.92 -0.96,1.44 -1.19,3.29 -0.73,4.99 0.43,1.76 1.46,3.1 3.03,4.04l36.64 21.92c1.09,0.6 2.28,0.96 3.38,0.96 2.25,0 4.48,-1.23 5.7,-3.32 44.82,-74.79 100.88,-149.87 166.63,-223.14 2.5,-2.65 2.34,-6.91 -0.46,-9.33z"/>
    <path class="fil0" d="M1116.97 632.41c-14.28,13.17 -28.26,26.47 -41.95,39.86 -1.31,1.17 -1.89,2.96 -1.97,4.65 0,1.82 0.66,3.54 1.91,4.78l29.94 30.36c1.25,1.34 2.94,2 4.71,2 1.63,0 3.38,-0.66 4.64,-1.91 13.31,-13.11 26.77,-25.78 40.51,-38.7 2.82,-2.42 2.89,-6.6 0.44,-9.34l-28.81 -31.25c-2.5,-2.56 -6.62,-2.79 -9.41,-0.44z"/>
    <path class="fil0" d="M1437.8 389.09c-33.27,20.66 -65.63,42.01 -96.2,63.25 -2.97,2.06 -3.7,6.26 -1.63,9.21l24.27 35.08c1.04,1.48 2.59,2.45 4.28,2.71 0.46,0 0.81,0.15 1.17,0.15 1.33,0 2.73,-0.41 3.83,-1.25 30.59,-21.26 62.2,-42 93.83,-61.69 1.49,-0.98 2.52,-2.44 2.96,-4.19 0.43,-1.64 0.15,-3.48 -0.81,-5.02l-22.58 -36.2c-1.9,-3.02 -6.02,-3.96 -9.11,-2.06z"/>
    <path class="fil0" d="M1744.93 230.97c-87.52,36.48 -174.22,79.64 -257.62,128.35 -1.58,0.78 -2.69,2.27 -3.17,3.95 -0.38,1.72 -0.17,3.56 0.73,5.07l21.54 36.89c1.28,2.06 3.47,3.29 5.71,3.29 1.15,0 2.29,-0.35 3.4,-0.92 80.92,-47.4 165.37,-89.39 250.89,-124.92 1.68,-0.73 2.94,-1.98 3.67,-3.66 0.66,-1.63 0.61,-3.47 0,-5.1l-16.46 -39.41c-1.48,-3.39 -5.43,-4.88 -8.68,-3.54z"/>
    <path class="fil0" d="M2979.56 237.6c0.88,0.42 1.92,0.56 2.78,0.56 0.81,0 1.64,-0.14 2.38,-0.35 1.6,-0.65 3.01,-1.9 3.66,-3.61l17.5 -38.98c1.47,-3.31 0,-7.29 -3.36,-8.74 -35.97,-16.2 -72.04,-30.69 -107.25,-43.31 -3.4,-1.13 -7.2,0.5 -8.47,3.96l-14.48 40.07c-1.24,3.47 0.58,7.23 4.06,8.46 34.36,12.44 69.07,26.55 103.19,41.94z"/>
    <path class="fil0" d="M1868.94 242.82c0.67,0 1.48,-0.13 2.13,-0.36 17.72,-6.12 35.47,-12.14 53.25,-17.81 1.71,-0.52 3.17,-1.78 3.9,-3.31 0.9,-1.55 0.96,-3.4 0.46,-5.01l-12.95 -40.68c-1.03,-3.53 -5.22,-5.56 -8.39,-4.32 -18.23,5.82 -36.48,11.98 -54.7,18.46 -3.4,1.16 -5.35,4.93 -4.07,8.35l14.04 40.16c0.96,2.74 3.55,4.51 6.33,4.51z"/>
    <path class="fil0" d="M2751.81 173.09c17.03,3.54 34.74,7.8 54.25,12.72 0.51,0.15 1.1,0.21 1.62,0.21 1.24,0 2.35,-0.27 3.36,-0.87 1.56,-0.9 2.61,-2.36 3.04,-4.13l10.6 -41.33c0.44,-1.69 0.13,-3.53 -0.77,-5 -0.85,-1.55 -2.34,-2.58 -4.02,-3.03 -18.78,-4.86 -37.61,-9.27 -56.42,-13.32 -1.79,-0.44 -3.53,-0.12 -5.03,0.88 -1.46,1.04 -2.51,2.52 -2.8,4.21l-8.95 41.77c-0.29,1.78 -0.07,3.53 0.99,5.02 0.93,1.47 2.4,2.51 4.13,2.87z"/>
    <path class="fil0" d="M2183.59 107.64c-1.02,1.38 -1.47,3.21 -1.18,4.92l6.53 42c0.53,3.3 3.4,5.67 6.56,5.67 0.37,0 0.73,0 1.04,-0.09 36.46,-5.67 73.81,-10.17 111.05,-13.38 3.69,-0.31 6.33,-3.54 6.12,-7.22l-3.61 -42.59c-0.24,-1.7 -1.05,-3.38 -2.52,-4.48 -1.18,-1.02 -2.8,-1.48 -4.86,-1.54 -38.37,3.44 -77,8.14 -114.81,13.96 -1.68,0.31 -3.32,1.25 -4.34,2.75z"/>
    <path class="fil0" d="M2363.05 143l0.37 0c25.07,-1.32 50.81,-1.76 75.67,-2.07l5.97 -0.06c65.47,0 131.72,4.36 196.81,13.03 0.23,0.06 0.65,0.06 0.9,0.06 3.3,0 6.09,-2.43 6.52,-5.79l5.77 -42.3c0.27,-1.71 -0.31,-3.46 -1.33,-4.93 -1.04,-1.4 -2.69,-2.22 -4.45,-2.53 -67.36,-8.98 -136.06,-13.49 -204.1,-13.49 -28.52,-0.54 -57.5,0.7 -84.7,2.11 -1.69,0.06 -3.4,0.9 -4.63,2.3 -1.19,1.23 -1.8,3 -1.69,4.69l2.27 42.67c0.15,3.54 3.09,6.31 6.6,6.31z"/>
    <path class="fil0" d="M3577.07 643.94c1.33,1.27 2.97,1.92 4.71,1.92l0.08 0c1.84,-0.07 3.45,-0.73 4.72,-2.07l29.62 -30.6c2.67,-2.62 2.54,-6.8 -0.06,-9.3 -28.18,-27.29 -57.01,-53.43 -85.98,-77.55 -2.79,-2.44 -7.03,-1.9 -9.33,0.9l-27.28 32.7c-1.19,1.25 -1.72,3.13 -1.47,4.82 0.07,1.77 0.88,3.38 2.33,4.57 28.4,23.75 56.2,48.91 82.67,74.62z"/>
    <path class="fil0" d="M1249.5 648.07c-29.27,26.2 -57.06,54 -82.68,82.6 -1.16,1.23 -1.76,3 -1.63,4.69 0.17,1.85 0.9,3.46 2.23,4.65l31.94 28.25c1.17,1.1 2.8,1.78 4.4,1.78 1.77,0 3.6,-0.83 4.94,-2.29 23.54,-26.5 49.81,-52.69 78.11,-78.14 2.72,-2.42 2.93,-6.6 0.44,-9.33l-28.4 -31.71c-2.42,-2.85 -6.66,-2.94 -9.33,-0.5z"/>
    <path class="fil0" d="M1319.73 652.56c1.13,1.41 2.73,2.22 4.5,2.43 0.16,0.07 0.45,0.07 0.65,0.07 1.54,0 3.03,-0.5 4.19,-1.49 67.55,-55 145.96,-106.26 232.9,-152.44 1.6,-0.89 2.79,-2.29 3.23,-3.97 0.58,-1.61 0.37,-3.48 -0.44,-5.01l-20.01 -37.69c-1.76,-3.15 -5.74,-4.4 -8.98,-2.76 -90.02,47.87 -171.44,101.11 -241.98,158.4 -1.32,1.11 -2.19,2.75 -2.43,4.51 -0.14,1.68 0.38,3.51 1.49,4.75l26.9 33.19z"/>
    <path class="fil0" d="M3431.81 535.98c1.11,0.75 2.42,1.17 3.75,1.17 0.44,0 0.9,-0.07 1.16,-0.13 1.78,-0.29 3.35,-1.34 4.28,-2.79l24.01 -35.16c1.04,-1.47 1.29,-3.26 1.04,-4.93 -0.29,-1.79 -1.35,-3.32 -2.83,-4.36 -16.03,-10.82 -32.07,-21.34 -48.4,-31.62 -1.46,-0.98 -3.23,-1.25 -5.02,-0.88 -1.66,0.42 -3.16,1.46 -4.1,2.92l-22.66 36.07c-1.99,3.08 -1.03,7.2 2.08,9.2 15.65,9.84 31.16,20.04 46.69,30.5z"/>
    <path class="fil0" d="M1717.43 420.58l-16.52 -39.37c-1.51,-3.23 -5.53,-4.92 -8.77,-3.53 -17.81,7.44 -35.37,15.24 -52.81,23.09 -3.38,1.57 -4.85,5.48 -3.31,8.83l17.58 38.83c1.08,2.44 3.5,3.92 6.01,3.92 0.9,0 1.86,-0.23 2.73,-0.64 16.97,-7.67 34.19,-15.01 51.57,-22.39 3.35,-1.45 4.91,-5.37 3.52,-8.74z"/>
    <path class="fil0" d="M3030.46 344.31c90.37,27.8 177.25,63.25 257.99,105.62 0.9,0.5 2.07,0.72 3.09,0.72 0.75,0 1.35,-0.06 1.99,-0.31 1.69,-0.5 3.18,-1.68 3.93,-3.21l19.69 -37.81c1.79,-3.23 0.43,-7.21 -2.78,-8.98 -83.78,-43.9 -173.77,-80.75 -267.43,-109.46 -3.78,-1.29 -7.22,0.83 -8.23,4.27l-12.54 40.83c-0.61,1.78 -0.43,3.62 0.38,5.18 0.86,1.52 2.3,2.63 3.92,3.15z"/>
    <path class="fil0" d="M1977.67 339.75c0.41,0 1.02,-0.07 1.68,-0.32 35.82,-9.39 72.58,-18.16 109.22,-25.79 1.76,-0.36 3.22,-1.42 4.12,-2.87 1,-1.49 1.32,-3.32 1,-5.02l-8.78 -41.68c-0.84,-3.52 -3.53,-5.89 -7.96,-5.11 -37.77,7.9 -75.55,16.87 -111.94,26.48 -3.52,1.04 -5.58,4.66 -4.69,8.19l10.87 41.19c0.81,2.94 3.52,4.92 6.48,4.92z"/>
    <path class="fil0" d="M2976.9 328.87c0.6,0.17 1.18,0.23 1.77,0.23 1.1,0 2.36,-0.37 3.25,-0.83 1.61,-1.01 2.72,-2.35 3.15,-4.12l11.13 -41.18c0.85,-3.54 -1.21,-7.12 -4.74,-8.1 -36.92,-9.91 -74.89,-18.83 -112.6,-26.32 -1.7,-0.23 -3.61,0 -5.1,1.03 -1.45,1.04 -2.35,2.5 -2.7,4.19l-8.17 41.84c-0.87,3.7 1.63,7.13 5.18,7.79 36.61,7.38 73.22,15.82 108.83,25.47z"/>
    <path class="fil0" d="M2142.39 303.06c0.46,0 0.81,-0.08 1.27,-0.08 92.73,-16.92 186.6,-27.58 278.37,-31.57 1.86,-0.06 3.45,-0.9 4.74,-2.13 1.1,-1.33 1.74,-3.08 1.69,-4.77l-1.95 -42.67c-0.06,-1.85 -0.79,-3.46 -2.13,-4.65 -1.14,-1.16 -2.86,-1.25 -4.77,-1.75 -94.96,4.25 -191.16,15.22 -286.04,32.44 -1.77,0.36 -3.29,1.4 -4.27,2.8 -1.03,1.46 -1.41,3.22 -1.18,5l7.71 41.92c0.67,3.23 3.46,5.45 6.54,5.45z"/>
    <path class="fil0" d="M2590.45 270.97c1.72,0 3.4,-0.58 4.56,-1.82 1.35,-1.13 2.07,-2.81 2.15,-4.57l1.7 -42.68c0.14,-3.58 -2.74,-6.67 -6.34,-6.9 -19.26,-0.73 -38.38,-1.25 -57.66,-1.47l-0.12 0c-3.64,0 -6.56,2.93 -6.62,6.62l-0.44 42.52c0,3.73 2.94,6.71 6.53,6.73 18.68,0.24 37.36,0.76 56.02,1.56l0.23 0z"/>
    <path class="fil0" d="M3947.26 1131.84c18.46,31.67 35.97,64.76 52.32,98.45 0.72,1.62 2.02,2.81 3.73,3.38 0.66,0.25 1.37,0.37 2.13,0.37 1.02,0 2.06,-0.21 2.88,-0.64l38.48 -18.63c3.36,-1.52 4.68,-5.49 3.05,-8.81 -16.74,-34.86 -35,-69.21 -54.27,-102.23 -1.77,-3.11 -5.86,-4.13 -8.95,-2.37l-36.94 21.41c-1.55,0.88 -2.66,2.38 -3.09,3.98 -0.43,1.76 -0.3,3.53 0.66,5.1z"/>
    <path class="fil0" d="M3905.41 1082.03c1.4,0 2.66,-0.47 3.88,-1.34l34.68 -24.8c1.33,-0.95 2.27,-2.5 2.64,-4.32 0.23,-1.71 -0.14,-3.49 -1.19,-4.93 -11.31,-15.76 -22.85,-31.13 -34.65,-46.36 -1.08,-1.4 -2.7,-2.35 -4.39,-2.5 -2.44,-0.5 -3.62,0.21 -4.94,1.25l-33.69 26.26c-2.95,2.23 -3.36,6.47 -1.17,9.34 11.46,14.57 22.51,29.51 33.46,44.57 1.34,1.85 3.29,2.82 5.37,2.82z"/>
    <path class="fil0" d="M3587.52 752.66c-2.28,2.95 -1.61,7.13 1.33,9.26 75.17,56.94 144.46,119.98 205.96,187.57 1.32,1.34 4.13,1.84 4.92,2.13 1.66,0 3.31,-0.59 4.45,-1.76l31.66 -28.77c2.64,-2.5 2.8,-6.68 0.43,-9.41 -64.13,-70.16 -135.99,-135.56 -213.86,-194.23 -2.94,-2.38 -7.06,-1.56 -9.19,1.24l-25.69 33.98z"/>
    <path class="fil0" d="M3449.86 667.94c32.04,19.49 63.52,40.08 93.56,61.2 1.1,0.73 2.45,1.15 3.78,1.15 2.08,0 4.16,-1.03 5.46,-2.86l24.55 -34.85c1.04,-1.4 1.33,-3.17 1.12,-4.94 -0.37,-1.69 -1.27,-3.24 -2.74,-4.34 -30.59,-21.48 -63.17,-42.81 -96.78,-63.19 -1.46,-0.87 -3.4,-1.04 -5,-0.81 -1.76,0.44 -3.25,1.55 -4.19,3.02l-22.09 36.48c-1.89,3.11 -0.79,7.22 2.32,9.13z"/>
    <path class="fil0" d="M3167.63 469.32c-3.47,-1.16 -7.13,0.47 -8.61,3.93l-15.08 39.86c-0.66,1.67 -0.53,3.46 0.13,5.16 0.67,1.54 2.16,2.86 3.79,3.47 17.4,6.6 34.94,13.38 52.2,20.43 0.72,0.37 1.6,0.56 2.5,0.56 2.65,0 5.17,-1.6 6.19,-4.17l16.16 -39.34c1.34,-3.39 -0.22,-7.3 -3.59,-8.69 -17.72,-7.35 -35.68,-14.42 -53.69,-21.2z"/>
    <path class="fil0" d="M1722.93 533.78c0.83,1.49 2.31,2.71 3.9,3.24 0.74,0.14 1.35,0.26 1.93,0.26 1.11,0 2.19,-0.26 3.23,-0.79 30.92,-16.77 64.58,-32.5 100.03,-46.78 1.69,-0.66 2.94,-1.91 3.72,-3.51 0.62,-1.69 0.72,-3.49 0,-5.18l-15.93 -39.49c-1.31,-3.43 -5,-4.99 -8.6,-3.68 -37.16,14.93 -72.73,31.46 -105.84,49.36 -1.61,0.81 -2.72,2.21 -3.25,3.98 -0.42,1.69 -0.27,3.55 0.61,5.07l20.21 37.52z"/>
    <path class="fil0" d="M3043.77 485.37c2.86,0 5.42,-1.84 6.31,-4.71l12.79 -40.52c0.52,-1.6 0.46,-3.45 -0.43,-5.02 -0.8,-1.67 -2.13,-2.77 -3.9,-3.3 -90.32,-28.47 -184.48,-51.21 -279.85,-67.54 -1.72,0 -3.54,0.17 -4.94,1.12 -1.49,1.02 -2.35,2.57 -2.79,4.33l-7.13 42.1c-0.22,1.75 0.21,3.6 1.1,5 1.03,1.46 2.63,2.35 4.32,2.73 92.19,15.65 183.9,37.63 272.52,65.46 0.73,0.29 1.33,0.35 2,0.35z"/>
    <path class="fil0" d="M2159.39 404.11c1.09,-1.4 1.55,-3.25 1.26,-4.93l-5.88 -42.14c-0.44,-3.34 -3.33,-5.75 -6.63,-5.75 -0.31,0 -0.56,0 -0.87,0.09 -100.78,14.3 -195.5,36.33 -281.56,66.05 -1.69,0.58 -3.09,1.76 -3.82,3.37 -0.73,1.63 -0.87,3.47 -0.31,5.09l13.92 40.28c0.95,2.74 3.55,4.5 6.22,4.5 0.76,0 1.49,-0.14 2.24,-0.36 82.2,-28.46 173.44,-49.77 271.1,-63.6 1.76,-0.32 3.3,-1.19 4.34,-2.59z"/>
    <path class="fil0" d="M2606.79 341.88c-3.38,0 -6.33,2.59 -6.61,6.12l-3.83 42.42c-0.24,1.68 0.29,3.46 1.48,4.87 1.02,1.39 2.74,2.19 4.42,2.26 37.92,3.55 75.44,7.97 111.65,13.19 0.29,0.06 0.56,0.06 0.87,0.06 1.41,0 2.86,-0.5 3.96,-1.25 1.42,-1.1 2.38,-2.72 2.65,-4.4l6.04 -42.22c0.52,-3.61 -1.99,-6.98 -5.58,-7.5 -38.4,-5.53 -76.91,-10.15 -114.45,-13.47 -0.12,-0.08 -0.44,-0.08 -0.58,-0.08z"/>
    <path class="fil0" d="M2265.84 394.84l0.56 0c18.42,-1.47 37.07,-2.75 55.84,-3.54 1.71,-0.15 3.38,-0.87 4.63,-2.21 1.12,-1.25 1.77,-3.02 1.71,-4.84l-1.99 -42.58c-0.16,-1.76 -0.88,-3.4 -2.22,-4.67 -1.32,-1.14 -3.17,-1.67 -4.86,-1.67 -19.25,0.94 -38.38,2.13 -57.5,3.59 -1.77,0.22 -3.4,1.1 -4.57,2.38 -1.21,1.37 -1.71,3.08 -1.65,4.85l3.4 42.5c0.15,1.78 1.05,3.38 2.39,4.49 1.16,1.1 2.79,1.7 4.26,1.7z"/>
    <path class="fil0" d="M4235.64 1805.39c-0.42,-1.77 -1.32,-3.24 -2.8,-4.28 -1.48,-1.02 -3.3,-1.09 -5,-1.09l-41.92 7.59c-3.6,0.72 -6.02,4.18 -5.43,7.79 6.46,35.66 11.6,72.74 15.52,110.22 0.15,1.77 1.03,3.42 2.3,4.56 1.23,0.9 2.71,1.49 4.25,1.49 0.29,0 0.46,0 0.73,-0.14l42.36 -4.26c3.63,-0.38 6.34,-3.69 5.92,-7.29 -3.94,-38.62 -9.28,-77.16 -15.93,-114.59z"/>
    <path class="fil0" d="M4138.41 1691.45c-0.8,1.6 -0.86,3.48 -0.35,5.15 5.51,16.85 10.95,34.73 16.1,53.19 0.73,2.95 3.46,4.85 6.39,4.85 0.59,0 1.16,-0.14 1.85,-0.29l41.04 -11.4c3.45,-0.96 5.52,-4.7 4.55,-8.22 -5.29,-19.06 -10.94,-37.82 -16.77,-55.62 -0.49,-1.62 -1.75,-3.03 -3.22,-3.91 -1.7,-0.66 -3.55,-1.02 -5.16,-0.38l-40.6 13.4c-1.61,0.5 -2.95,1.69 -3.83,3.24z"/>
    <path class="fil0" d="M4007.79 1312.83l-35.77 23.21c-2.92,1.94 -3.96,6.04 -1.88,9.14 51.32,79.15 94.88,162.19 129.58,246.69 0.74,1.62 1.99,2.94 3.53,3.6 0.89,0.36 1.77,0.51 2.66,0.51 0.88,0 1.7,-0.15 2.49,-0.51l39.45 -16.26c3.35,-1.39 4.98,-5.31 3.59,-8.65 -36.27,-88.19 -81.42,-174.33 -134.46,-255.83 -1.92,-2.94 -6.1,-4.11 -9.19,-1.9z"/>
    <path class="fil0" d="M3985.89 1271.7c0.3,-1.74 0,-3.45 -1.04,-4.93 -21.48,-30.66 -44.86,-61.77 -69.45,-92.43 -2.36,-2.96 -6.6,-3.32 -9.26,-1.13l-33.32 26.72c-1.4,1.1 -2.29,2.65 -2.42,4.5 -0.29,1.75 0.3,3.45 1.32,4.84 23.52,29.2 46.21,59.44 67.16,89.59 1.02,1.5 2.49,2.43 4.34,2.81 0.27,0 0.74,0.06 1.11,0.06 1.38,0 2.7,-0.44 3.81,-1.23l35.01 -24.44c1.48,-1.1 2.44,-2.65 2.75,-4.35z"/>
    <path class="fil0" d="M3684.32 1007.43c1.68,-0.59 3.67,-0.75 5,-2.13l28.75 -31.47c1.11,-1.25 1.83,-3.02 1.68,-4.78 0,-1.77 -0.81,-3.49 -2.03,-4.65 -14.3,-13.03 -28.75,-25.75 -43.49,-38.3 -1.25,-1.13 -3.01,-1.43 -4.86,-1.63 -1.7,0.15 -3.31,1.02 -4.47,2.35l-27.67 32.36c-2.43,2.82 -2.07,7.06 0.65,9.35 14.2,12.2 28.18,24.51 42,37.21 1.19,1.1 2.82,1.69 4.44,1.69z"/>
    <path class="fil0" d="M3313.92 738.76c0.44,1.75 1.6,3.25 3.17,4.05 81.68,46.83 160.33,99 233.65,155.04 1.19,0.82 2.6,1.33 4.13,1.33 0.13,0 0.6,0 0.79,-0.08 1.72,-0.21 3.4,-1.11 4.44,-2.49l25.82 -33.91c2.29,-2.96 1.71,-7.04 -1.18,-9.35 -75.39,-57.65 -156.23,-111.13 -239.93,-159 -3.09,-1.91 -7.18,-0.75 -9.04,2.5l-21.27 36.93c-0.79,1.46 -1,3.31 -0.56,5z"/>
    <path class="fil0" d="M3186.3 614.38c-1.69,0.6 -3.03,1.84 -3.81,3.4l-18.03 38.68c-1.63,3.36 -0.15,7.33 3.17,8.89 33.76,15.82 67.59,32.67 100.4,50.29 0.96,0.52 1.98,0.81 3.09,0.81 0.6,0 1.33,-0.06 1.91,-0.35 1.75,-0.46 3.08,-1.63 3.96,-3.19l20.08 -37.56c1.71,-3.16 0.53,-7.28 -2.71,-8.98 -33.76,-18.1 -68.39,-35.53 -103,-51.76 -1.58,-0.67 -3.58,-0.84 -5.06,-0.24z"/>
    <path class="fil0" d="M2859.5 498.32l-11.45 41.1c-0.49,1.71 -0.26,3.55 0.6,5.09 0.87,1.55 2.33,2.73 4.1,3.15 17.86,4.94 35.73,10.23 53.71,15.83 0.74,0.22 1.3,0.3 1.96,0.3 1.04,0 2.15,-0.21 3.17,-0.73 1.46,-0.82 2.67,-2.29 3.17,-3.92l12.74 -40.73c1.12,-3.54 -0.9,-7.25 -4.34,-8.31 -18.62,-5.88 -37.01,-11.25 -55.4,-16.33 -3.4,-0.95 -7.21,1.05 -8.25,4.57z"/>
    <path class="fil0" d="M2468.17 432.13c-3.64,0 -6.56,2.93 -6.7,6.56l-0.68 42.62c0,1.71 0.68,3.49 1.86,4.65 1.26,1.31 2.92,2 4.68,2.08 86.89,1.32 179.92,12.28 276.58,32.8 0.45,0.06 1.05,0.15 1.46,0.15 1.29,0 2.51,-0.3 3.6,-1.1 1.4,-0.97 2.5,-2.45 2.85,-4.14l8.87 -41.7c0.73,-3.61 -1.62,-7.07 -5.16,-7.89 -99.9,-21.15 -196.54,-32.71 -287.29,-34.03l-0.06 0z"/>
    <path class="fil0" d="M2416.53 486.32c1.25,-1.25 1.83,-2.92 1.83,-4.77l-1.45 -42.67c-0.24,-3.52 -3.18,-6.32 -6.71,-6.32l-0.23 0c-39.98,1.26 -79.15,4.72 -116.35,10.31 -1.74,0.21 -3.38,1.17 -4.41,2.56 -1.04,1.49 -1.46,3.16 -1.15,4.92l6.3 42.25c0.21,1.75 1.16,3.3 2.5,4.4 1.25,0.84 2.63,1.25 3.98,1.25 0.44,0 0.73,0 1.02,-0.06 34.89,-5.29 71.85,-8.46 110.03,-9.71 1.79,-0.08 3.4,-0.9 4.65,-2.15z"/>
    <path class="fil0" d="M1876.65 2949.4c1.33,-1.48 1.85,-3.46 1.5,-5.43l-148.75 -811.05 137.48 -766.46c0.35,-1.98 -0.14,-3.98 -1.48,-5.44 -1.16,-1.54 -3.09,-2.43 -5,-2.43l-92.67 0c-3.25,0 -5.97,2.35 -6.53,5.44l-133.19 710.35 -86.67 0 0 -709.12c0,-3.57 -2.93,-6.67 -6.62,-6.67l-92.49 0c-3.7,0 -6.64,3.11 -6.64,6.67l0 1579.91c0,3.6 2.95,6.68 6.64,6.68l92.49 0c3.7,0 6.62,-3.09 6.62,-6.68l0 -765.01 86.67 0 143.25 760.42 1.06 5.83c0.63,3.08 3.36,5.43 6.6,5.43l92.66 0c1.99,0 3.82,-0.89 5.07,-2.44z"/>
    <path class="fil0" d="M2716.97 1940.65l92.53 0c3.59,0 6.6,-3.02 6.6,-6.68l0 -356.37c0,-68.84 -18.97,-123.54 -56.45,-162.4 -37.53,-38.97 -87.13,-58.76 -147.36,-58.76 -60.22,0 -109.93,19.7 -147.45,58.7 -37.43,38.92 -56.51,93.39 -56.51,162.17l0 1155.78c0,68.76 19.08,123.41 56.51,162.25 37.67,38.97 87.23,58.7 147.45,58.7 60.1,0 109.75,-19.72 147.36,-58.7 37.48,-38.9 56.45,-93.57 56.45,-162.4l0 -378.18c0,-3.69 -3.02,-6.68 -6.6,-6.68l-92.53 0c-3.67,0 -6.68,3 -6.68,6.68l0 376.78c0,39.65 -8.92,69.44 -26.4,88.48 -17.46,18.75 -41.5,28.25 -71.59,28.25 -30.51,0 -53.95,-9.28 -71.55,-28.25 -17.66,-18.97 -26.48,-48.7 -26.48,-88.48l0 -1152.48c0,-39.83 8.81,-69.65 26.48,-88.54 17.6,-19.04 41.04,-28.31 71.55,-28.31 30.09,0 54.13,9.49 71.59,28.31 17.47,18.99 26.4,48.77 26.4,88.39l0 355.06c0,3.67 3.02,6.68 6.68,6.68z"/>
   </g>
   <path class="fil0" d="M5674.68 1809.96l212.69 -465.72 104.51 0 0 641.74 -73.34 0 0 -539.97 -219.11 469.38 -51.34 0 -219.11 -469.38 0 539.97 -73.34 0 0 -641.74 106.35 0 212.68 465.72zm500.56 -465.72l392.38 0 0 71.51 -315.37 0 0 199.86 286.04 0 0 71.5 -286.04 0 0 227.36 315.37 0 0 71.5 -392.38 0 0 -641.74zm949.77 570.24l0 -498.72 -273.2 0 0 111.85c0,37.28 -0.91,74.1 -2.75,110.47 -1.83,36.37 -4.74,71.04 -8.71,104.05 -3.97,33 -9.01,64.17 -15.13,93.5 -6.1,29.34 -13.44,55.62 -22,78.85l321.78 0zm-387.79 71.5l0 143.93 -75.17 0 0 -215.43 60.5 0c10.39,-17.72 19.1,-40.8 26.13,-69.22 7.03,-28.42 12.84,-60.2 17.42,-95.34 4.59,-35.15 7.79,-73.34 9.62,-114.6 1.84,-41.25 2.76,-83.57 2.76,-126.96l0 -164.11 423.54 0 0 570.24 86.18 0 0 215.43 -75.18 0 0 -143.93 -475.8 0zm1106.54 0l0 -522.56 -350.2 522.56 -82.51 0 0 -641.74 77.01 0 0 522.56 350.21 -522.56 82.5 0 0 641.74 -77.01 0zm324.53 -641.74l0 570.24 352.05 0 0 -570.24 78.84 0 0 570.24 86.18 0 0 207.19 -78.85 0 0 -135.69 -517.05 0 0 -641.74 78.84 0zm1072.62 641.74l0 -522.56 -350.2 522.56 -82.51 0 0 -641.74 77.01 0 0 522.56 350.21 -522.56 82.5 0 0 641.74 -77.01 0zm244.77 -641.74l77.01 0 0 265.87 333.7 0 0 -265.87 77.01 0 0 641.74 -77.01 0 0 -304.37 -333.7 0 0 304.37 -77.01 0 0 -641.74zm955.27 656.41c-47.67,0 -91.52,-8.4 -131.55,-25.21 -40.03,-16.81 -74.57,-40.18 -103.59,-70.14 -29.03,-29.94 -51.8,-65.4 -68.31,-106.34 -16.49,-40.95 -24.75,-85.57 -24.75,-133.85 0,-48.29 8.25,-92.9 24.75,-133.85 16.5,-40.95 39.27,-76.4 68.31,-106.35 29.02,-29.94 63.56,-53.32 103.59,-70.13 40.03,-16.81 83.88,-25.22 131.55,-25.22 61.73,0 116.74,14.21 165.02,42.63 48.29,28.42 85.57,68.61 111.85,120.56l-66.01 39.41c-21.39,-41.56 -49.8,-73.18 -85.25,-94.88 -35.45,-21.7 -77.01,-32.54 -124.69,-32.54 -36.67,0 -70.29,6.26 -100.85,18.79 -30.55,12.53 -56.69,30.25 -78.38,53.17 -21.7,22.92 -38.65,50.42 -50.88,82.5 -12.22,32.09 -18.33,67.39 -18.33,105.89 0,38.5 6.11,73.79 18.33,105.88 12.23,32.09 29.18,59.6 50.88,82.51 21.69,22.92 47.83,40.64 78.38,53.17 30.56,12.53 64.18,18.79 100.85,18.79 47.68,0 89.24,-10.85 124.69,-32.55 35.45,-21.69 63.86,-53.32 85.25,-94.88l66.01 39.42c-26.28,51.95 -63.56,92.14 -111.85,120.55 -48.28,28.42 -103.28,42.63 -165.02,42.63zm631.65 -351.12l246.61 336.45 -95.34 0 -216.36 -299.78 -90.76 0 0 299.78 -77.01 0 0 -641.74 77.01 0 0 270.45 94.42 0 212.69 -270.45 93.5 0 -244.77 305.29zm787.51 336.45l0 -522.56 -350.2 522.56 -82.51 0 0 -641.74 77.01 0 0 522.56 350.21 -522.56 82.5 0 0 641.74 -77.01 0zm677.49 0l0 -522.56 -350.2 522.56 -82.51 0 0 -641.74 77.01 0 0 522.56 350.21 -522.56 82.5 0 0 641.74 -77.01 0zm-177.85 -719.66c-48.29,0 -87.25,-11.77 -116.89,-35.3 -29.64,-23.53 -47.52,-56.38 -53.63,-98.55l68.76 0c3.06,24.44 13.76,43.24 32.09,56.38 18.33,13.14 41.56,19.71 69.68,19.71 28.11,0 51.33,-6.57 69.68,-19.71 18.33,-13.14 29.02,-31.94 32.08,-56.38l68.76 0c-6.1,42.17 -23.99,75.02 -53.63,98.55 -29.64,23.53 -68.6,35.3 -116.88,35.3zm741.66 77.92l0 570.24 352.05 0 0 -570.24 78.84 0 0 570.24 86.18 0 0 207.19 -78.85 0 0 -135.69 -517.05 0 0 -641.74 78.84 0zm638.99 0l392.38 0 0 71.51 -315.37 0 0 199.86 286.04 0 0 71.5 -286.04 0 0 227.36 315.37 0 0 71.5 -392.38 0 0 -641.74zm531.72 0l77.01 0 0 265.87 333.7 0 0 -265.87 77.01 0 0 641.74 -77.01 0 0 -304.37 -333.7 0 0 304.37 -77.01 0 0 -641.74zm1083.62 0l0 71.51 -199.86 0 0 570.23 -77.01 0 0 -570.23 -199.86 0 0 -71.51 476.72 0zm194.36 333.7l168.68 0c39.72,0 71.5,-11.92 95.34,-35.75 23.84,-23.84 35.75,-55.93 35.75,-96.26 0,-39.73 -12.07,-71.35 -36.21,-94.89 -24.14,-23.53 -55.77,-35.29 -94.88,-35.29l-168.68 0 0 262.19zm-75.18 308.04l0 -641.74 248.44 0c30.56,0 58.38,4.9 83.43,14.67 25.06,9.78 46.45,23.54 64.17,41.26 17.72,17.72 31.47,38.96 41.25,63.71 9.78,24.76 14.67,52.41 14.67,82.96 0,29.95 -4.89,57.46 -14.67,82.51 -9.78,25.06 -23.53,46.45 -41.25,64.17 -17.72,17.72 -38.96,31.48 -63.71,41.25 -24.76,9.78 -52.41,14.68 -82.97,14.68l-174.18 0 0 236.52 -75.18 0zm-9715.9 957.11l0 -498.72 -273.2 0 0 111.85c0,37.28 -0.91,74.1 -2.75,110.47 -1.83,36.37 -4.74,71.04 -8.71,104.05 -3.97,33 -9.01,64.17 -15.13,93.5 -6.1,29.34 -13.44,55.62 -22,78.85l321.78 0zm-387.79 71.5l0 143.93 -75.17 0 0 -215.43 60.5 0c10.39,-17.72 19.1,-40.8 26.13,-69.22 7.03,-28.42 12.84,-60.2 17.42,-95.34 4.59,-35.15 7.79,-73.34 9.62,-114.6 1.84,-41.25 2.76,-83.57 2.76,-126.96l0 -164.11 423.54 0 0 570.24 86.18 0 0 215.43 -75.18 0 0 -143.93 -475.8 0zm969.03 14.67c-46.45,0 -89.69,-8.4 -129.72,-25.21 -40.03,-16.81 -74.41,-40.03 -103.14,-69.68 -28.72,-29.64 -51.34,-65.09 -67.85,-106.34 -16.49,-41.26 -24.75,-86.03 -24.75,-134.31 0,-48.9 8.25,-93.82 24.75,-134.77 16.5,-40.95 39.12,-76.25 67.85,-105.89 28.72,-29.64 63.1,-52.86 103.14,-69.67 40.03,-16.81 83.27,-25.22 129.72,-25.22 47.06,0 90.31,8.4 129.72,25.22 39.42,16.8 73.65,40.02 102.68,69.67 29.03,29.64 51.65,64.94 67.85,105.89 16.2,40.94 24.29,85.87 24.29,134.77 0,48.28 -8.09,93.04 -24.29,134.31 -16.2,41.25 -38.81,76.7 -67.85,106.34 -29.02,29.64 -63.25,52.86 -102.68,69.68 -39.41,16.8 -82.66,25.21 -129.72,25.21zm0 -75.17c36.06,0 69.07,-6.42 99.01,-19.25 29.95,-12.84 55.62,-30.71 77.01,-53.63 21.39,-22.92 38.04,-50.27 49.96,-82.05 11.92,-31.78 17.87,-66.92 17.87,-105.42 0,-38.5 -5.95,-73.8 -17.87,-105.89 -11.92,-32.08 -28.57,-59.59 -49.96,-82.5 -21.39,-22.92 -47.06,-40.64 -77.01,-53.17 -29.94,-12.53 -62.95,-18.79 -99.01,-18.79 -36.06,0 -69.07,6.26 -99.01,18.79 -29.95,12.53 -55.77,30.25 -77.47,53.17 -21.7,22.92 -38.5,50.42 -50.42,82.5 -11.92,32.09 -17.87,67.39 -17.87,105.89 0,38.5 5.95,73.64 17.87,105.42 11.92,31.78 28.72,59.14 50.42,82.05 21.7,22.92 47.52,40.79 77.47,53.63 29.94,12.83 62.95,19.25 99.01,19.25zm697.66 -275.95l246.61 336.45 -95.34 0 -216.36 -299.78 -90.76 0 0 299.78 -77.01 0 0 -641.74 77.01 0 0 270.45 94.42 0 212.69 -270.45 93.5 0 -244.77 305.29zm781.09 -305.29l0 71.51 -199.86 0 0 570.23 -77.01 0 0 -570.23 -199.86 0 0 -71.51 476.72 0zm415.3 656.41c-46.45,0 -89.69,-8.4 -129.72,-25.21 -40.03,-16.81 -74.41,-40.03 -103.14,-69.68 -28.72,-29.64 -51.34,-65.09 -67.85,-106.34 -16.49,-41.26 -24.75,-86.03 -24.75,-134.31 0,-48.9 8.25,-93.82 24.75,-134.77 16.5,-40.95 39.12,-76.25 67.85,-105.89 28.72,-29.64 63.1,-52.86 103.14,-69.67 40.03,-16.81 83.27,-25.22 129.72,-25.22 47.06,0 90.31,8.4 129.72,25.22 39.42,16.8 73.65,40.02 102.68,69.67 29.03,29.64 51.65,64.94 67.85,105.89 16.2,40.94 24.29,85.87 24.29,134.77 0,48.28 -8.09,93.04 -24.29,134.31 -16.2,41.25 -38.81,76.7 -67.85,106.34 -29.02,29.64 -63.25,52.86 -102.68,69.68 -39.41,16.8 -82.66,25.21 -129.72,25.21zm0 -75.17c36.06,0 69.07,-6.42 99.01,-19.25 29.95,-12.84 55.62,-30.71 77.01,-53.63 21.39,-22.92 38.04,-50.27 49.96,-82.05 11.92,-31.78 17.87,-66.92 17.87,-105.42 0,-38.5 -5.95,-73.8 -17.87,-105.89 -11.92,-32.08 -28.57,-59.59 -49.96,-82.5 -21.39,-22.92 -47.06,-40.64 -77.01,-53.17 -29.94,-12.53 -62.95,-18.79 -99.01,-18.79 -36.06,0 -69.07,6.26 -99.01,18.79 -29.95,12.53 -55.77,30.25 -77.47,53.17 -21.7,22.92 -38.5,50.42 -50.42,82.5 -11.92,32.09 -17.87,67.39 -17.87,105.89 0,38.5 5.95,73.64 17.87,105.42 11.92,31.78 28.72,59.14 50.42,82.05 21.7,22.92 47.52,40.79 77.47,53.63 29.94,12.83 62.95,19.25 99.01,19.25zm539.06 -247.53l168.68 0c39.72,0 71.5,-11.92 95.34,-35.75 23.84,-23.84 35.75,-55.93 35.75,-96.26 0,-39.73 -12.07,-71.35 -36.21,-94.89 -24.14,-23.53 -55.77,-35.29 -94.88,-35.29l-168.68 0 0 262.19zm-75.18 308.04l0 -641.74 248.44 0c30.56,0 58.38,4.9 83.43,14.67 25.06,9.78 46.45,23.54 64.17,41.26 17.72,17.72 31.47,38.96 41.25,63.71 9.78,24.76 14.67,52.41 14.67,82.96 0,29.95 -4.89,57.46 -14.67,82.51 -9.78,25.06 -23.53,46.45 -41.25,64.17 -17.72,17.72 -38.96,31.48 -63.71,41.25 -24.76,9.78 -52.41,14.68 -82.97,14.68l-174.18 0 0 236.52 -75.18 0zm687.58 -240.19l221.86 0 -110.93 -319.04 -110.93 319.04zm155.86 -401.55l235.6 641.74 -86.17 0 -59.6 -172.35 -269.52 0 -59.6 172.35 -84.34 0 235.61 -641.74 88.01 0zm881.01 656.41c-47.67,0 -91.52,-8.4 -131.55,-25.21 -40.03,-16.81 -74.57,-40.18 -103.59,-70.14 -29.03,-29.94 -51.8,-65.4 -68.31,-106.34 -16.49,-40.95 -24.75,-85.57 -24.75,-133.85 0,-48.29 8.25,-92.9 24.75,-133.85 16.5,-40.95 39.27,-76.4 68.31,-106.35 29.02,-29.94 63.56,-53.32 103.59,-70.13 40.03,-16.81 83.88,-25.22 131.55,-25.22 61.73,0 116.74,14.21 165.02,42.63 48.29,28.42 85.57,68.61 111.85,120.56l-66.01 39.41c-21.39,-41.56 -49.8,-73.18 -85.25,-94.88 -35.45,-21.7 -77.01,-32.54 -124.69,-32.54 -36.67,0 -70.29,6.26 -100.85,18.79 -30.55,12.53 -56.69,30.25 -78.38,53.17 -21.7,22.92 -38.65,50.42 -50.88,82.5 -12.22,32.09 -18.33,67.39 -18.33,105.89 0,38.5 6.11,73.79 18.33,105.88 12.23,32.09 29.18,59.6 50.88,82.51 21.69,22.92 47.83,40.64 78.38,53.17 30.56,12.53 64.18,18.79 100.85,18.79 47.68,0 89.24,-10.85 124.69,-32.55 35.45,-21.69 63.86,-53.32 85.25,-94.88l66.01 39.42c-26.28,51.95 -63.56,92.14 -111.85,120.55 -48.28,28.42 -103.28,42.63 -165.02,42.63zm596.81 -289.69l156.78 -366.71 88.01 0 -286.04 641.74 -82.5 0 87.09 -195.27 -221.86 -446.47 88.01 0 170.51 366.71zm650.9 289.69c-47.67,0 -91.52,-8.4 -131.55,-25.21 -40.03,-16.81 -74.57,-40.18 -103.59,-70.14 -29.03,-29.94 -51.8,-65.4 -68.31,-106.34 -16.49,-40.95 -24.75,-85.57 -24.75,-133.85 0,-48.29 8.25,-92.9 24.75,-133.85 16.5,-40.95 39.27,-76.4 68.31,-106.35 29.02,-29.94 63.56,-53.32 103.59,-70.13 40.03,-16.81 83.88,-25.22 131.55,-25.22 61.73,0 116.74,14.21 165.02,42.63 48.29,28.42 85.57,68.61 111.85,120.56l-66.01 39.41c-21.39,-41.56 -49.8,-73.18 -85.25,-94.88 -35.45,-21.7 -77.01,-32.54 -124.69,-32.54 -36.67,0 -70.29,6.26 -100.85,18.79 -30.55,12.53 -56.69,30.25 -78.38,53.17 -21.7,22.92 -38.65,50.42 -50.88,82.5 -12.22,32.09 -18.33,67.39 -18.33,105.89 0,38.5 6.11,73.79 18.33,105.88 12.23,32.09 29.18,59.6 50.88,82.51 21.69,22.92 47.83,40.64 78.38,53.17 30.56,12.53 64.18,18.79 100.85,18.79 47.68,0 89.24,-10.85 124.69,-32.55 35.45,-21.69 63.86,-53.32 85.25,-94.88l66.01 39.42c-26.28,51.95 -63.56,92.14 -111.85,120.55 -48.28,28.42 -103.28,42.63 -165.02,42.63zm825.09 -656.41l0 71.51 -199.86 0 0 570.23 -77.01 0 0 -570.23 -199.86 0 0 -71.51 476.72 0zm194.36 333.7l168.68 0c39.72,0 71.5,-11.92 95.34,-35.75 23.84,-23.84 35.75,-55.93 35.75,-96.26 0,-39.73 -12.07,-71.35 -36.21,-94.89 -24.14,-23.53 -55.77,-35.29 -94.88,-35.29l-168.68 0 0 262.19zm-75.18 308.04l0 -641.74 248.44 0c30.56,0 58.38,4.9 83.43,14.67 25.06,9.78 46.45,23.54 64.17,41.26 17.72,17.72 31.47,38.96 41.25,63.71 9.78,24.76 14.67,52.41 14.67,82.96 0,29.95 -4.89,57.46 -14.67,82.51 -9.78,25.06 -23.53,46.45 -41.25,64.17 -17.72,17.72 -38.96,31.48 -63.71,41.25 -24.76,9.78 -52.41,14.68 -82.97,14.68l-174.18 0 0 236.52 -75.18 0zm580.32 -641.74l392.38 0 0 71.51 -315.37 0 0 199.86 286.04 0 0 71.5 -286.04 0 0 227.36 315.37 0 0 71.5 -392.38 0 0 -641.74zm958.94 0l0 71.51 -199.86 0 0 570.23 -77.01 0 0 -570.23 -199.86 0 0 -71.51 476.72 0zm415.3 656.41c-46.45,0 -89.69,-8.4 -129.72,-25.21 -40.03,-16.81 -74.41,-40.03 -103.14,-69.68 -28.72,-29.64 -51.34,-65.09 -67.85,-106.34 -16.49,-41.26 -24.75,-86.03 -24.75,-134.31 0,-48.9 8.25,-93.82 24.75,-134.77 16.5,-40.95 39.12,-76.25 67.85,-105.89 28.72,-29.64 63.1,-52.86 103.14,-69.67 40.03,-16.81 83.27,-25.22 129.72,-25.22 47.06,0 90.31,8.4 129.72,25.22 39.42,16.8 73.65,40.02 102.68,69.67 29.03,29.64 51.65,64.94 67.85,105.89 16.2,40.94 24.29,85.87 24.29,134.77 0,48.28 -8.09,93.04 -24.29,134.31 -16.2,41.25 -38.81,76.7 -67.85,106.34 -29.02,29.64 -63.25,52.86 -102.68,69.68 -39.41,16.8 -82.66,25.21 -129.72,25.21zm0 -75.17c36.06,0 69.07,-6.42 99.01,-19.25 29.95,-12.84 55.62,-30.71 77.01,-53.63 21.39,-22.92 38.04,-50.27 49.96,-82.05 11.92,-31.78 17.87,-66.92 17.87,-105.42 0,-38.5 -5.95,-73.8 -17.87,-105.89 -11.92,-32.08 -28.57,-59.59 -49.96,-82.5 -21.39,-22.92 -47.06,-40.64 -77.01,-53.17 -29.94,-12.53 -62.95,-18.79 -99.01,-18.79 -36.06,0 -69.07,6.26 -99.01,18.79 -29.95,12.53 -55.77,30.25 -77.47,53.17 -21.7,22.92 -38.5,50.42 -50.42,82.5 -11.92,32.09 -17.87,67.39 -17.87,105.89 0,38.5 5.95,73.64 17.87,105.42 11.92,31.78 28.72,59.14 50.42,82.05 21.7,22.92 47.52,40.79 77.47,53.63 29.94,12.83 62.95,19.25 99.01,19.25zm526.23 -235.61l0 224.61 183.35 0c36.68,0 65.86,-10.39 87.55,-31.17 21.7,-20.78 32.55,-47.98 32.55,-81.59 0,-33 -10.85,-59.89 -32.55,-80.68 -21.69,-20.78 -50.87,-31.17 -87.55,-31.17l-183.35 0zm0 -71.5l165.94 0c33,0 59.59,-9.63 79.76,-28.88 20.17,-19.25 30.25,-43.85 30.25,-73.79 0,-29.34 -10.08,-53.33 -30.25,-71.97 -20.17,-18.63 -46.76,-27.95 -79.76,-27.95l-165.94 0 0 202.6zm-75.17 -274.12l246.6 0c27.5,0 52.41,3.67 74.72,11 22.31,7.34 41.4,18.03 57.3,32.09 15.89,14.06 28.11,31.17 36.67,51.34 8.56,20.16 12.84,43.08 12.84,68.76 0,67.84 -31.78,114.59 -95.34,140.26 40.33,11.61 70.89,31.48 91.68,59.6 20.78,28.11 31.17,62.33 31.17,102.68 0,27.5 -4.74,52.1 -14.21,73.8 -9.48,21.69 -22.77,40.03 -39.88,55 -17.11,14.98 -37.59,26.59 -61.42,34.84 -23.84,8.25 -50.11,12.38 -78.85,12.38l-261.27 0 0 -641.74zm680.23 401.55l221.86 0 -110.93 -319.04 -110.93 319.04zm155.86 -401.55l235.6 641.74 -86.17 0 -59.6 -172.35 -269.52 0 -59.6 172.35 -84.34 0 235.61 -641.74 88.01 0z"/>
  </g>
 </g>
</svg>
