<svg width="16.000000" height="17.000000" viewBox="0 0 16 17" fill="none" xmlns="http://www.w3.org/2000/svg" xmlns:xlink="http://www.w3.org/1999/xlink">
	<desc>
			Created with Pixso.
	</desc>
	<defs/>
	<path id="Facebook Places" d="M15.622 4.23114C15.5393 4.00433 15.3715 3.7627 15.2473 3.55112C13.7611 0.93689 10.5139 0 7.89191 0C4.38196 0 0.516113 1.72272 0 5.27362L0 5.99911C0 6.02939 0.0142517 6.30136 0.0345154 6.43741C0.323822 8.12967 2.14819 9.92819 3.51068 11.6205C4.97653 13.4336 6.49756 15.2172 8.00452 17C8.93372 15.8365 9.85959 14.6578 10.7676 13.5245C11.0151 13.1919 11.3024 12.8595 11.5501 12.542C11.7153 12.3307 12.0307 12.1193 12.1748 11.9226C13.6406 9.95828 16 7.97876 16 6.02936L16 5.22849C16.0001 5.01715 15.6422 4.2767 15.622 4.23114ZM7.95618 7.87302C6.92444 7.87302 5.7951 7.49539 5.23767 6.45255C5.1546 6.28653 5.16132 5.95386 5.16132 5.92337L5.16132 5.45493C5.16132 4.12549 6.70352 3.52094 8.04517 3.52094C9.6969 3.52094 10.9743 4.48816 10.9743 5.69714C10.9743 6.90607 9.60788 7.87302 7.95618 7.87302Z" fill="#FFFFFF" fill-opacity="1.000000" fill-rule="nonzero"/>
</svg>
