<svg width="136" height="47" viewBox="0 0 136 47" fill="none" xmlns="http://www.w3.org/2000/svg">
<g clip-path="url(#clip0_25_12)">
<path d="M88.5464 12.1095C86.7184 12.1095 85.8339 12.847 85.8339 14.3736C85.8339 15.5536 86.372 16.2763 87.3744 16.5639C87.1606 17.0138 85.6422 20.2292 85.6422 20.2292H86.5931C86.5931 20.2292 88.1041 16.9843 88.2294 16.7114H89.8436V20.2292H90.6765V12.1095H88.5537H88.5464ZM89.8289 15.8855H88.3621C87.1459 15.8855 86.6742 15.4577 86.6742 14.3441C86.6742 13.3411 87.2049 12.9503 88.5611 12.9503H89.8289V15.8855ZM80.2762 12.1095H79.9519L77.1289 20.2292H77.9986C77.9986 20.2292 78.7873 17.9357 78.8905 17.6333H81.7062C81.8094 17.9357 82.5907 20.2292 82.5907 20.2292H83.4457L80.6743 12.1095H80.3573M79.1854 16.8073C79.3549 16.3279 80.0035 14.4621 80.3131 13.5771C80.6153 14.4695 81.2566 16.3353 81.4187 16.8073H79.1854ZM41.417 20.2292H42.2499V12.9429H46.0533V20.2292H46.9009V12.1095H41.417V20.2292ZM55.8786 12.0653C55.8786 12.0653 55.8565 12.1022 55.8565 12.1095H55.4659C55.4659 12.1095 52.348 17.2129 51.5888 18.4445V12.1095H50.7485V20.2292H51.0728V20.2809C51.0728 20.2809 51.1023 20.2366 51.1023 20.2292H51.4709C51.4709 20.2292 54.6035 15.1258 55.3553 13.8942V20.2292H56.1882V12.1095H55.8713V12.0653H55.8786ZM64.1045 15.915C64.6279 15.5536 64.9301 14.971 64.9301 14.2482C64.9301 13.4739 64.6205 12.8323 64.0824 12.4856C63.6181 12.1759 63.0063 12.1095 62.1734 12.1095H60.0506V20.2292H62.3871C63.279 20.2292 63.8982 20.1629 64.3994 19.8015C64.9522 19.4328 65.2839 18.7322 65.2839 17.9357C65.2839 16.9327 64.8564 16.2321 64.1119 15.915H64.1045ZM60.8835 12.9503H62.1955C63.6328 12.9503 64.0898 13.26 64.0898 14.2335C64.0898 14.9193 63.8687 15.6273 62.2102 15.6273H60.8761V12.9576L60.8835 12.9503ZM63.7507 19.2189C63.4117 19.3664 62.9694 19.3811 62.3208 19.3811H60.8835V16.4091H62.3282C64.0677 16.4091 64.4289 16.9917 64.4289 17.8767C64.4289 18.533 64.1783 19.0198 63.7434 19.2189H63.7507ZM73.3845 15.4946H69.5737V12.1095H68.7408V20.2292H69.5737V16.3279H73.3845V20.2292H74.2174V12.1095H73.3845V15.4946Z" fill="white"/>
<path d="M17.9037 35.3109H11.749V18.2749H21.4565V21.1732H14.6458V24.986H17.6457C20.9774 24.986 22.5252 27.3755 22.5252 29.588V30.6794C22.5252 32.8919 21.228 35.3035 17.8963 35.3035L17.9037 35.3109ZM19.6285 29.5953C19.6285 28.9611 19.142 27.8622 17.6457 27.8622H14.6458V32.4199H17.8963C19.3926 32.4199 19.6211 31.321 19.6211 30.6868V29.5953H19.6285Z" fill="white"/>
<path d="M30.648 35.3108V27.9139L26.7561 34.6029V35.3108H23.8594V22.6703H26.7561V30.0747L30.648 23.3857V22.6703H33.5668V35.3108H30.648Z" fill="white"/>
<path d="M69.7212 35.3108V27.9139L65.8294 34.6029V35.3108H62.9326V22.6703H65.8294V30.0747L69.7212 23.3857V22.6703H72.6401V35.3108H69.7212Z" fill="white"/>
<path d="M78.8901 35.6722C76.3471 35.6722 74.2686 33.6073 74.2686 31.0629V26.9478C74.2686 24.4034 76.3471 22.3458 78.8901 22.3458C81.433 22.3458 83.4895 24.4034 83.4895 26.9478V31.0629C83.4895 33.6073 81.433 35.6722 78.8901 35.6722ZM80.5928 26.874C80.5928 25.93 79.8336 25.1704 78.8901 25.1704C77.9466 25.1704 77.1874 25.93 77.1874 26.874V31.1441C77.1874 32.088 77.9466 32.8476 78.8901 32.8476C79.8336 32.8476 80.5928 32.088 80.5928 31.1441V26.874Z" fill="white"/>
<path d="M90.396 25.2442V35.3108H87.4993V25.2442H84.2192V22.6777H93.654V25.2442H90.4034H90.396Z" fill="white"/>
<path d="M102.145 34.4037C100.981 35.0675 99.455 35.6796 98.2831 35.6796C95.7401 35.6796 94.2144 34.0497 94.2144 31.5054V26.9551C94.2144 24.4108 96.2708 22.3532 98.8138 22.3532C101.357 22.3532 103.391 24.4108 103.391 26.9551V30.0821H97.1111V31.2768C97.1111 32.2208 97.4428 32.9804 98.3789 32.9804C99.116 32.9804 100.236 32.442 100.922 32.088L101.961 31.5497L103.384 33.6884L102.138 34.3964L102.145 34.4037ZM100.494 26.874C100.494 25.93 99.7573 25.1704 98.8138 25.1704C97.8703 25.1704 97.1111 25.93 97.1111 26.874V27.6631H100.494V26.874Z" fill="white"/>
<path d="M111.624 35.3108L108.47 30.3549H107.909V35.3108H105.013V22.6703H107.909V27.6557H108.492L111.646 22.6998H114.978L110.939 28.9021L115.081 35.3108H111.624Z" fill="white"/>
<path d="M119.644 35.6427C117.153 35.6427 115.428 34.2267 115.428 31.6529C115.428 27.0731 121.781 28.6513 121.781 26.3135C121.781 25.3695 121.376 24.9934 120.484 24.9934C119.238 24.9934 117.742 25.8341 116.644 26.4168L115.472 24.0052C117.042 23.1644 118.752 22.3237 120.58 22.3237C123.071 22.3237 124.671 23.7471 124.671 26.3135V34.0719C123.175 35.0159 121.42 35.6427 119.636 35.6427H119.644ZM121.958 29.4405C121.066 30.1779 118.324 30.1779 118.324 31.6529C118.324 32.6706 118.907 33.15 119.872 33.15C120.558 33.15 121.347 32.9214 121.958 32.5895V29.4331V29.4405Z" fill="white"/>
<path d="M52.8786 22.5597L52.8639 24.8312V26.8445C52.8934 27.7221 52.7165 28.9758 52.1121 30.0673C52.1047 30.0894 52.09 30.1116 52.0826 30.1263C51.6919 30.8491 51.2349 31.4022 50.4757 31.7709C49.8639 32.1249 49.1121 32.3609 48.1908 32.3978H35.874V35.2813C36.1394 35.2813 36.2057 35.2887 36.2721 35.2961H50.1219C50.3209 35.2666 50.5126 35.2445 50.6895 35.215C54.2349 34.625 55.3331 31.0629 55.4732 29.2487C55.5911 27.6336 55.7238 25.6498 55.7459 25.2147C55.7312 25.1188 55.7164 25.0672 55.7164 25.0672L55.7533 25.1335H58.3257V35.3993H61.2225V22.5597H52.8786ZM55.7459 25.2294C55.7459 25.2294 55.7459 25.163 55.7459 25.1335C55.7459 25.1335 55.7459 25.163 55.7459 25.2147C55.7459 25.2147 55.7459 25.222 55.7459 25.2294Z" fill="white"/>
<path d="M39.0435 31.4169H48.1613C48.8615 31.3874 49.4217 31.2252 49.886 30.9744C50.4241 30.6352 50.8737 30.1853 51.2202 29.647C51.9204 28.4154 51.8836 26.9773 51.8836 26.8666V26.0775C51.5003 24.0199 49.8566 22.4196 47.6232 22.4196H43.783C41.3137 22.4196 39.5152 23.4889 39.5152 26.1808C39.5152 27.3239 40.0459 28.3416 40.8641 29.1307V29.2266C39.1098 29.0275 38.3949 28.4891 37.9895 26.638C37.6946 25.3032 37.444 24.0421 37.1271 22.6408H34.0239C34.3998 24.2707 34.8274 26.0554 35.1664 27.5009C35.7413 29.8534 37.1123 31.0039 39.0509 31.4243L39.0435 31.4169ZM43.7756 25.3032H47.5642C48.5077 25.3032 49.2669 26.0701 49.2669 27.0068C49.2669 27.9434 48.5003 28.7103 47.5642 28.7103H43.7756C42.8321 28.7103 42.0729 27.9434 42.0729 27.0068C42.0729 26.0701 42.8321 25.3032 43.7756 25.3032Z" fill="white"/>
<path d="M129.477 5.32465H5.91895V41.2919H130.081V5.32465H129.477ZM128.88 6.52675V40.0824H7.1204V6.52675H128.88Z" fill="white" stroke="white" stroke-miterlimit="10"/>
<path d="M133.826 0.368744H0.368652V46.6313H135.632V0.368744H133.826ZM132.02 3.97505V43.0249H3.97301V3.97505H132.02Z" fill="white" stroke="white" stroke-miterlimit="10"/>
</g>
<defs>
<clipPath id="clip0_25_12">
<rect width="136" height="47" fill="white"/>
</clipPath>
</defs>
</svg>
