<?xml version="1.0" encoding="UTF-8"?>
<svg id="Layer_1" data-name="Layer 1" xmlns="http://www.w3.org/2000/svg" viewBox="0 0 184.51 63.73">
  <defs>
    <style>
      .cls-1 {
        stroke-width: 0px;
      }

      .cls-1, .cls-2 {
        fill: #fff;
      }

      .cls-2 {
        stroke: #fff;
        stroke-miterlimit: 10;
      }
    </style>
  </defs>
  <g>
    <path class="cls-1" d="M120.13,16.42c-2.48,0-3.68,1-3.68,3.07,0,1.6.73,2.58,2.09,2.97-.29.61-2.35,4.97-2.35,4.97h1.29s2.05-4.4,2.22-4.77h2.19v4.77h1.13v-11.01h-2.88ZM121.87,21.54h-1.99c-1.65,0-2.29-.58-2.29-2.09,0-1.36.72-1.89,2.56-1.89h1.72v3.98ZM108.91,16.42h-.44l-3.83,11.01h1.18s1.07-3.11,1.21-3.52h3.82c.14.41,1.2,3.52,1.2,3.52h1.16l-3.76-11.01h-.43M107.43,22.79c.23-.65,1.11-3.18,1.53-4.38.41,1.21,1.28,3.74,1.5,4.38h-3.03ZM56.19,27.43h1.13v-9.88h5.16v9.88h1.15v-11.01h-7.44v11.01ZM75.81,16.36s-.03.05-.03.06h-.53s-4.23,6.92-5.26,8.59v-8.59h-1.14v11.01h.44v.07s.04-.06.04-.07h.5s4.25-6.92,5.27-8.59v8.59h1.13v-11.01h-.43v-.06ZM86.97,21.58c.71-.49,1.12-1.28,1.12-2.26,0-1.05-.42-1.92-1.15-2.39-.63-.42-1.46-.51-2.59-.51h-2.88v11.01h3.17c1.21,0,2.05-.09,2.73-.58.75-.5,1.2-1.45,1.2-2.53,0-1.36-.58-2.31-1.59-2.74ZM82.6,17.56h1.78c1.95,0,2.57.42,2.57,1.74,0,.93-.3,1.89-2.55,1.89h-1.81v-3.62ZM86.49,26.06c-.46.2-1.06.22-1.94.22h-1.95v-4.03h1.96c2.36,0,2.85.79,2.85,1.99,0,.89-.34,1.55-.93,1.82ZM99.56,21.01h-5.17v-4.59h-1.13v11.01h1.13v-5.29h5.17v5.29h1.13v-11.01h-1.13v4.59Z"/>
    <g>
      <path class="cls-1" d="M24.29,47.88h-8.35v-23.1h13.17v3.93h-9.24v5.17h4.07c4.52,0,6.62,3.24,6.62,6.24v1.48c0,3-1.76,6.27-6.28,6.27ZM26.63,40.13c0-.86-.66-2.35-2.69-2.35h-4.07v6.18h4.41c2.03,0,2.34-1.49,2.34-2.35v-1.48Z"/>
      <path class="cls-1" d="M41.58,47.88v-10.03l-5.28,9.07v.96h-3.93v-17.14h3.93v10.04l5.28-9.07v-.97h3.96v17.14h-3.96Z"/>
      <path class="cls-1" d="M94.59,47.88v-10.03l-5.28,9.07v.96h-3.93v-17.14h3.93v10.04l5.28-9.07v-.97h3.96v17.14h-3.96Z"/>
      <path class="cls-1" d="M107.03,48.37c-3.45,0-6.27-2.8-6.27-6.25v-5.58c0-3.45,2.82-6.24,6.27-6.24s6.24,2.79,6.24,6.24v5.58c0,3.45-2.79,6.25-6.24,6.25ZM109.34,36.44c0-1.28-1.03-2.31-2.31-2.31s-2.31,1.03-2.31,2.31v5.79c0,1.28,1.03,2.31,2.31,2.31s2.31-1.03,2.31-2.31v-5.79Z"/>
      <path class="cls-1" d="M122.64,34.23v13.65h-3.93v-13.65h-4.45v-3.48h12.8v3.48h-4.41Z"/>
      <path class="cls-1" d="M138.58,46.65c-1.58.9-3.65,1.73-5.24,1.73-3.45,0-5.52-2.21-5.52-5.66v-6.17c0-3.45,2.79-6.24,6.24-6.24s6.21,2.79,6.21,6.24v4.24h-8.52v1.62c0,1.28.45,2.31,1.72,2.31,1,0,2.52-.73,3.45-1.21l1.41-.73,1.93,2.9-1.69.96ZM136.34,36.44c0-1.28-1-2.31-2.28-2.31s-2.31,1.03-2.31,2.31v1.07h4.59v-1.07Z"/>
      <path class="cls-1" d="M151.44,47.88l-4.28-6.72h-.76v6.72h-3.93v-17.14h3.93v6.76h.79l4.28-6.72h4.52l-5.48,8.41,5.62,8.69h-4.69Z"/>
      <path class="cls-1" d="M162.32,48.33c-3.38,0-5.72-1.92-5.72-5.41,0-6.21,8.62-4.07,8.62-7.24,0-1.28-.55-1.79-1.76-1.79-1.69,0-3.72,1.14-5.21,1.93l-1.59-3.27c2.13-1.14,4.45-2.28,6.93-2.28,3.38,0,5.55,1.93,5.55,5.41v10.52c-2.03,1.28-4.41,2.13-6.83,2.13ZM165.46,39.92c-1.21,1-4.93,1-4.93,3,0,1.38.79,2.03,2.1,2.03.93,0,2-.31,2.83-.76v-4.28Z"/>
      <path class="cls-1" d="M71.74,30.59l-.02,3.08v2.73c.04,1.19-.2,2.89-1.02,4.37-.01.03-.03.06-.04.08-.53.98-1.15,1.73-2.18,2.23-.83.48-1.85.8-3.1.85h-16.71v3.91c.36,0,.45.01.54.02h18.79c.27-.04.53-.07.77-.11,4.81-.8,6.3-5.63,6.49-8.09.16-2.19.34-4.88.37-5.47-.02-.13-.04-.2-.04-.2l.05.09h3.49v13.92h3.93v-17.41h-11.32ZM75.63,34.21s0-.09,0-.13c0,0,0,.04,0,.11,0,0,0,.01,0,.02Z"/>
      <path class="cls-1" d="M52.97,42.6h12.37c.95-.04,1.71-.26,2.34-.6.73-.46,1.34-1.07,1.81-1.8.95-1.67.9-3.62.9-3.77v-1.07c-.52-2.79-2.75-4.96-5.78-4.96h-5.21c-3.35,0-5.79,1.45-5.79,5.1,0,1.55.72,2.93,1.83,4v.13c-2.38-.27-3.35-1-3.9-3.51-.4-1.81-.74-3.52-1.17-5.42h-4.21c.51,2.21,1.09,4.63,1.55,6.59.78,3.19,2.64,4.75,5.27,5.32ZM59.39,34.31h5.14c1.28,0,2.31,1.04,2.31,2.31s-1.04,2.31-2.31,2.31h-5.14c-1.28,0-2.31-1.04-2.31-2.31s1.03-2.31,2.31-2.31Z"/>
    </g>
  </g>
  <path class="cls-2" d="M175.66,7.22H8.03v48.77h168.45V7.22h-.82ZM174.85,8.85v45.5H9.66V8.85h165.19Z"/>
  <path class="cls-2" d="M181.56.5H.5v62.73h183.51V.5h-2.45ZM179.11,5.39v52.95H5.39V5.39h173.72Z"/>
</svg>