<svg width="16.000000" height="16.000000" viewBox="0 0 16 16" fill="none" xmlns="http://www.w3.org/2000/svg" xmlns:xlink="http://www.w3.org/1999/xlink">
	<desc>
			Created with Pixso.
	</desc>
	<defs/>
	<path id="Vector" d="M8.25557 0C10.2366 0.276367 12.0312 1.17203 13.4496 2.59042C14.7947 3.9389 15.677 5.63699 16 7.50824L14.7714 7.71799C14.4951 6.10315 13.7326 4.6348 12.5706 3.47278C11.3454 2.25079 9.79379 1.47501 8.08243 1.23529L8.25557 0ZM12.1643 10.5841C11.6416 10.068 10.989 10.068 10.4696 10.5841C10.0734 10.977 9.67715 11.3699 9.2876 11.7694C9.18106 11.8793 9.09116 11.9026 8.9613 11.8293C8.70494 11.6895 8.43192 11.5763 8.18553 11.4231C7.03685 10.7006 6.07463 9.77167 5.22227 8.72617C4.79942 8.20676 4.42319 7.6507 4.16016 7.02475C4.10689 6.89822 4.11688 6.81497 4.22009 6.71176C4.6163 6.32886 5.00253 5.93597 5.39207 5.54306C5.93478 4.99701 5.93478 4.35773 5.38875 3.80835C5.0791 3.49536 4.76945 3.18906 4.45982 2.87607C4.14018 2.55643 3.82388 2.23346 3.50092 1.91714C2.97818 1.40771 2.32561 1.40771 1.8062 1.92047C1.40666 2.31335 1.02377 2.71625 0.617569 3.10248C0.241333 3.45874 0.0515442 3.89493 0.0115967 4.40436C-0.0516663 5.23343 0.151428 6.01587 0.437775 6.77835C1.02376 8.35657 1.91608 9.75833 2.99817 11.0435C4.45982 12.7816 6.20448 14.1567 8.24547 15.149C9.16441 15.5951 10.1167 15.938 11.1521 15.9947C11.8646 16.0346 12.4839 15.8548 12.98 15.2988C13.3196 14.9192 13.7025 14.5729 14.0621 14.21C14.5948 13.6706 14.5982 13.018 14.0688 12.4853C13.4362 11.8493 12.8002 11.2167 12.1643 10.5841ZM11.5286 7.93137L12.7571 7.72162C12.564 6.5929 12.0313 5.57071 11.2222 4.75827C10.3666 3.90256 9.28447 3.36319 8.0925 3.19669L7.91937 4.43198C8.84164 4.56183 9.68068 4.97803 10.3433 5.64062C10.9692 6.26657 11.3787 7.05902 11.5286 7.93137Z" fill="#FFFFFF" fill-opacity="1.000000" fill-rule="evenodd"/>
</svg>
