<svg width="23.000000" height="23.000000" viewBox="0 0 23 23" fill="none" xmlns="http://www.w3.org/2000/svg" xmlns:xlink="http://www.w3.org/1999/xlink">
	<desc>
			Created with Pixso.
	</desc>
	<defs/>
	<path id="Vector" d="M16.3888 11.5C16.3888 8.79993 14.1999 6.61108 11.4999 6.61108C8.79984 6.61108 6.61101 8.79993 6.61101 11.5C6.61101 14.2 8.79984 16.3889 11.4999 16.3889C14.1999 16.3889 16.3888 14.2 16.3888 11.5Z" stroke="#FFFFFF" stroke-opacity="1.000000" stroke-width="1.000000" stroke-linejoin="round"/>
	<path id="Vector" d="M0.5 6.61111C0.5 3.23605 3.23605 0.5 6.61111 0.5L16.3889 0.5C19.7639 0.5 22.5 3.23605 22.5 6.61111L22.5 16.3889C22.5 19.7639 19.7639 22.5 16.3889 22.5L6.61111 22.5C3.23605 22.5 0.5 19.7639 0.5 16.3889L0.5 6.61111Z" stroke="#FFFFFF" stroke-opacity="1.000000" stroke-width="1.000000"/>
	<path id="Vector" d="M18.2221 4.79001L18.2343 4.77643" stroke="#FFFFFF" stroke-opacity="1.000000" stroke-width="1.000000" stroke-linejoin="round" stroke-linecap="round"/>
</svg>
